<svg width="120" height="120" viewBox="0 0 120 120" fill="none" xmlns="http://www.w3.org/2000/svg">
<g clip-path="url(#clip0_1581_20353)">
<path d="M23.6171 31.4176C23.3137 31.8086 22.9834 32.0851 22.6395 32.2536C22.2889 32.4222 21.9384 32.5098 21.581 32.5098C21.2237 32.5098 20.8866 32.4559 20.5697 32.3345C20.2529 32.2199 19.9697 32.0648 19.727 31.8761L19.5989 31.7749C19.336 31.5659 19.1067 31.3232 18.9112 31.0401C18.7224 30.7569 18.5876 30.4468 18.5134 30.1097C18.4393 29.7726 18.446 29.4152 18.5269 29.0512C18.6146 28.6804 18.7966 28.3096 19.0865 27.9388C19.3899 27.5545 19.7203 27.2713 20.0843 27.096C20.4484 26.914 20.8259 26.8398 21.2102 26.86C21.5945 26.887 21.9653 27.0084 22.3294 27.2376L21.6687 28.0803C21.4529 27.959 21.2372 27.8916 21.0215 27.8983C20.8057 27.8983 20.5967 27.959 20.4012 28.0669C20.1989 28.1815 20.0236 28.3365 19.8618 28.5455C19.7 28.7545 19.5922 28.9635 19.5382 29.186C19.4843 29.4085 19.4843 29.6242 19.5315 29.84C19.5787 30.0557 19.6731 30.258 19.8079 30.4535C19.9427 30.649 20.118 30.8311 20.3338 30.9996C20.5428 31.1614 20.7585 31.2895 20.981 31.3704C21.2035 31.4513 21.426 31.4918 21.6485 31.485C21.8709 31.4783 22.0867 31.4176 22.2889 31.3097C22.4912 31.2019 22.68 31.0401 22.8485 30.8243C23.098 30.5074 23.2261 30.1771 23.2396 29.8332C23.253 29.4894 23.1317 29.186 22.889 28.9163L23.5497 28.0736C23.8261 28.35 24.0216 28.6736 24.143 29.0377C24.2643 29.4018 24.2846 29.7928 24.2104 30.2041C24.1362 30.6153 23.934 31.0198 23.6171 31.4311V31.4176Z" fill="#11092B"/>
<path d="M30.3254 24.2846L27.0016 20.0102L27.8174 19.3765L31.1411 23.6509L30.3254 24.2846ZM28.2488 20.172L27.7028 19.4708L29.5905 18.0011L30.1366 18.7023L28.2421 20.172H28.2488ZM29.6107 21.9249L29.0646 21.2238L30.8512 19.8349L31.3973 20.5361L29.6107 21.9249ZM31.0265 23.7452L30.4804 23.0441L32.4154 21.5406L32.9615 22.2418L31.0198 23.7452H31.0265Z" fill="#11092B"/>
<path d="M39.3326 18.3921L37.1145 13.4098L38.0786 12.985L40.2967 17.9673L39.3326 18.3921ZM39.2719 16.4369L38.9281 15.6549L40.1888 15.0953C40.3641 15.0144 40.499 14.9132 40.6001 14.7851C40.6945 14.657 40.7484 14.5087 40.7619 14.3537C40.7754 14.1919 40.7417 14.03 40.6675 13.8548C40.5933 13.6862 40.4922 13.5446 40.3641 13.4502C40.236 13.3558 40.0944 13.2952 39.9326 13.2749C39.7708 13.2547 39.6023 13.2884 39.427 13.3693L38.1662 13.9289L37.8022 13.1064L38.9618 12.594C39.3596 12.4187 39.7304 12.3243 40.0742 12.3108C40.4181 12.3041 40.7214 12.3783 40.9844 12.5468C41.2473 12.7154 41.4631 12.9783 41.6249 13.3491L41.6721 13.457C41.8339 13.821 41.8878 14.1514 41.8339 14.4615C41.7799 14.7717 41.6316 15.0481 41.3956 15.2908C41.1597 15.5335 40.8428 15.7425 40.445 15.9245L39.2854 16.4369H39.2719ZM42.3463 17.0504L39.8787 15.574L40.9574 15.0953L43.4789 16.5448L42.3463 17.0504Z" fill="#11092B"/>
<path d="M48.9196 10.2748L48.7578 9.36463L52.8771 8.62976L53.039 9.53992L48.9196 10.2748ZM51.2523 14.4144L50.4366 9.85005L51.4748 9.66128L52.2906 14.2256L51.2523 14.4144Z" fill="#11092B"/>
<path d="M61.0619 13.6053L61.2439 8.19153L62.2957 8.22524L62.1136 13.639L61.0619 13.6053Z" fill="#11092B"/>
<path d="M69.7994 14.6099L71.0939 9.3512L72.1187 9.60739L70.8242 14.8594L69.7994 14.6099ZM71.2152 12.6413L71.431 11.7783L73.5345 12.2907L73.3187 13.1604L71.2152 12.6413ZM71.7613 10.4367L71.9771 9.57368L74.1817 10.1198L73.966 10.9827L71.7613 10.4367Z" fill="#11092B"/>
<path d="M79.7776 18.0011L82.144 13.1334L83.0946 13.5919L80.7282 18.4596L79.7776 18.0011Z" fill="#11092B"/>
<path d="M87.342 22.4642L90.6793 18.1965L91.4883 18.8303L88.1511 23.0979L87.342 22.4642ZM88.0365 23.0103L88.5826 22.3091L90.5175 23.8193L89.9714 24.5205L88.0365 23.0103ZM89.459 21.19L90.0051 20.4888L91.785 21.8844L91.2389 22.5855L89.459 21.19ZM90.8276 19.4438L91.3737 18.7426L93.2615 20.2191L92.7154 20.9203L90.8276 19.4438Z" fill="#11092B"/>
<path d="M95.2301 29.7523L99.5517 26.3813L100.199 27.2106L95.8773 30.5816L95.2301 29.7523ZM95.7829 30.467L96.5583 29.8669L97.2459 30.7501C97.4145 30.9659 97.6033 31.1412 97.8055 31.2558C98.0078 31.3771 98.2235 31.4513 98.4393 31.4715C98.655 31.4917 98.8775 31.4715 99.1 31.4108C99.3225 31.3502 99.5315 31.2288 99.7405 31.067C99.9495 30.9052 100.118 30.7232 100.233 30.5276C100.354 30.3321 100.421 30.1231 100.448 29.9074C100.475 29.6916 100.448 29.4692 100.381 29.2467C100.307 29.0242 100.192 28.8017 100.017 28.586L99.3292 27.7028L100.105 27.1027L100.752 27.932C101.055 28.3163 101.257 28.7006 101.372 29.0714C101.48 29.4489 101.514 29.8063 101.466 30.1501C101.419 30.4939 101.311 30.8176 101.129 31.1075C100.954 31.3974 100.732 31.6468 100.462 31.8626L100.334 31.9637C100.078 32.1659 99.7877 32.3143 99.4573 32.4154C99.1337 32.5165 98.7898 32.5502 98.4393 32.5098C98.0887 32.4761 97.7381 32.3615 97.3943 32.1659C97.0504 31.9704 96.7268 31.6873 96.4234 31.2962L95.7762 30.467H95.7829Z" fill="#11092B"/>
<path d="M24.0216 98.5539C23.6576 98.2168 23.4149 97.8663 23.2733 97.5022C23.1384 97.1381 23.0845 96.7808 23.1115 96.4235C23.1452 96.0662 23.2328 95.7358 23.3744 95.4324C23.5227 95.1223 23.698 94.8594 23.907 94.6369L24.0216 94.5155C24.2509 94.2728 24.5138 94.0638 24.8172 93.902C25.1206 93.7402 25.4375 93.6323 25.7813 93.5851C26.1251 93.5379 26.4757 93.5784 26.8398 93.693C27.1971 93.8144 27.5544 94.0301 27.8915 94.3537C28.2488 94.6908 28.4983 95.0481 28.6466 95.4257C28.7882 95.8032 28.8354 96.1875 28.7747 96.5651C28.714 96.9426 28.559 97.3067 28.3028 97.6438L27.5207 96.9157C27.6623 96.7134 27.7432 96.5044 27.7634 96.2887C27.7769 96.0729 27.7432 95.8639 27.6488 95.6549C27.5544 95.4459 27.4128 95.2504 27.2241 95.0751C27.0353 94.8931 26.8263 94.7717 26.6106 94.6976C26.3948 94.6234 26.1791 94.6032 25.9633 94.6301C25.7476 94.6571 25.5386 94.7313 25.3296 94.8459C25.1206 94.9605 24.9251 95.1223 24.7363 95.3178C24.5543 95.5133 24.4127 95.7156 24.3048 95.9313C24.2037 96.1471 24.143 96.3628 24.1295 96.5853C24.116 96.8078 24.1565 97.0235 24.2441 97.2393C24.3318 97.455 24.4801 97.6505 24.6824 97.8393C24.979 98.1157 25.2959 98.2775 25.633 98.318C25.9701 98.3584 26.2869 98.2708 26.5768 98.0483L27.3589 98.7764C27.0555 99.0259 26.7184 99.1944 26.3476 99.2821C25.9701 99.3697 25.5858 99.3562 25.1813 99.2484C24.7767 99.1338 24.3924 98.9045 24.0149 98.5539H24.0216Z" fill="#11092B"/>
<path d="M35.0784 106.483C34.6469 106.253 34.3166 105.977 34.0806 105.653C33.8446 105.33 33.6896 104.993 33.6154 104.635C33.5412 104.278 33.5345 103.927 33.5817 103.59C33.6289 103.253 33.73 102.95 33.8783 102.68L33.9592 102.538C34.1143 102.249 34.3233 101.986 34.5862 101.75C34.8492 101.514 35.1458 101.338 35.4829 101.217C35.82 101.096 36.1841 101.049 36.5751 101.075C36.9661 101.102 37.3707 101.231 37.7887 101.453C38.2067 101.676 38.537 101.945 38.773 102.255C39.0157 102.565 39.1775 102.896 39.2584 103.246C39.3393 103.597 39.3595 103.941 39.3056 104.285C39.2517 104.628 39.1505 104.952 38.9955 105.242L38.9146 105.384C38.773 105.647 38.5707 105.896 38.3145 106.125C38.0583 106.354 37.7617 106.536 37.4179 106.678C37.074 106.82 36.7099 106.874 36.3122 106.853C35.9144 106.833 35.5031 106.712 35.0717 106.476L35.0784 106.483ZM35.5436 105.62C35.7863 105.748 36.029 105.829 36.2717 105.842C36.5144 105.862 36.7437 105.829 36.9661 105.748C37.1886 105.667 37.3841 105.545 37.5662 105.39C37.7415 105.229 37.8965 105.04 38.0111 104.817C38.1392 104.581 38.2201 104.345 38.2539 104.103C38.2876 103.86 38.2741 103.631 38.2201 103.408C38.1662 103.186 38.0583 102.977 37.91 102.795C37.7617 102.606 37.5662 102.451 37.3167 102.316C37.074 102.188 36.838 102.114 36.5953 102.087C36.3526 102.06 36.1234 102.087 35.9077 102.168C35.6919 102.249 35.4897 102.363 35.3144 102.525C35.1323 102.687 34.984 102.882 34.8559 103.118C34.7346 103.341 34.6604 103.57 34.6267 103.806C34.593 104.042 34.5997 104.278 34.6537 104.507C34.7076 104.736 34.8087 104.945 34.957 105.141C35.1054 105.336 35.3009 105.491 35.5436 105.62Z" fill="#11092B"/>
<path d="M45.7374 110.716L46.9105 105.431L48.3129 105.741L48.9331 109.193L49.0612 109.22L51.0838 106.354L52.5131 106.671L51.34 111.957L50.322 111.728L51.3265 107.217L51.4546 107.258L49.2702 110.359L48.2185 110.123L47.5443 106.388L47.6859 106.402L46.6813 110.912L45.7374 110.703V110.716Z" fill="#11092B"/>
<path d="M60.1787 112.624L59.9832 107.177L61.0349 107.136L61.2304 112.584L60.1787 112.624ZM61.0214 110.932L60.9877 110.022L62.0394 109.982C62.2484 109.975 62.4237 109.928 62.5653 109.833C62.7069 109.746 62.8148 109.624 62.8889 109.476C62.9631 109.328 62.9968 109.152 62.9901 108.97C62.9833 108.775 62.9361 108.599 62.8552 108.458C62.7743 108.316 62.653 108.202 62.5046 108.128C62.3563 108.053 62.1743 108.02 61.972 108.026L60.9203 108.067L60.8866 107.157L61.8507 107.123C62.3024 107.109 62.6934 107.163 63.017 107.305C63.3406 107.44 63.5901 107.642 63.7721 107.912C63.9542 108.181 64.0485 108.505 64.062 108.883V109.004C64.0823 109.375 64.0081 109.698 63.853 109.982C63.698 110.265 63.462 110.487 63.1451 110.649C62.835 110.811 62.4507 110.898 61.9923 110.912L61.0282 110.946L61.0214 110.932Z" fill="#11092B"/>
<path d="M71.5524 111.391L71.8692 105.68L73.5345 105.215L76.8178 109.921L75.7661 110.211L72.9614 106.118L73.3727 106.172L72.4828 106.422L72.8131 106.159L72.5771 111.101L71.5659 111.384L71.5524 111.391ZM72.4086 109.665L72.4895 108.707L74.5997 108.121L75.1593 108.896L72.4086 109.665Z" fill="#11092B"/>
<path d="M84.4969 106.617L81.7462 101.952L83.2362 101.075L87.4971 103.833L87.7128 103.705L87.6522 103.894L85.279 99.8686L86.1352 99.3629L88.8859 104.028L87.3825 104.912L83.1216 102.154L82.9058 102.282L82.9665 102.093L85.3397 106.118L84.4969 106.617Z" fill="#11092B"/>
<path d="M95.1155 96.3358L91.6029 95.1088L92.3715 94.347L95.102 95.3245L94.8795 95.4391L95.3717 94.947L95.2436 95.1762L94.2053 92.5131L94.9334 91.7917L96.2279 95.2234L95.1155 96.3291V96.3358ZM96.7672 97.6168L95.1964 96.0324L95.9312 95.2976L97.5021 96.8819L96.7672 97.6168Z" fill="#11092B"/>
<path d="M60.0034 102.248C36.7099 102.248 17.7583 83.2968 17.7583 60.0034C17.7583 36.7099 36.7099 17.7583 60.0034 17.7583C83.2968 17.7583 102.248 36.7099 102.248 60.0034C102.248 83.2968 83.2968 102.248 60.0034 102.248ZM60.0034 21.1293C38.5707 21.1293 21.1293 38.5707 21.1293 60.0034C21.1293 81.436 38.5707 98.8775 60.0034 98.8775C81.436 98.8775 98.8775 81.436 98.8775 60.0034C98.8775 38.5707 81.436 21.1293 60.0034 21.1293Z" fill="#11092B"/>
<path d="M60.0033 18.9381C37.3639 18.9381 18.9381 37.3571 18.9381 60.0033C18.9381 82.6496 37.3571 101.069 60.0033 101.069C82.6496 101.069 101.069 82.6496 101.069 60.0033C101.069 37.3571 82.6496 18.9381 60.0033 18.9381ZM82.508 26.8869C79.6224 28.5117 76.6088 29.8061 73.5075 30.7635C70.2713 26.6779 66.334 23.0372 61.79 19.9966C69.4488 20.3337 76.5481 22.8282 82.508 26.8869ZM60.509 20.3674C65.1474 23.3608 69.1656 26.9745 72.4625 31.0669C68.5521 32.1658 64.5339 32.7389 60.509 32.7861V20.3674ZM58.2167 19.9966C53.6726 23.0305 49.7353 26.6779 46.4992 30.7635C43.4047 29.8129 40.3843 28.5184 37.5054 26.8869C43.4586 22.8282 50.5646 20.3337 58.2167 19.9966ZM59.4977 20.3674V32.7861C55.4727 32.7389 51.4545 32.1658 47.5442 31.0669C50.841 26.9813 54.8592 23.3608 59.4977 20.3741V20.3674ZM19.9494 60.0033C19.9494 46.6543 26.5228 34.8154 36.5953 27.5341C39.555 29.2398 42.6563 30.6017 45.8385 31.6062C39.6426 39.791 36.1908 49.6612 36.1908 60.0033C36.1908 70.3185 39.6224 80.1685 45.798 88.3398C42.6091 89.3511 39.5011 90.7197 36.5413 92.4321C26.5026 85.1441 19.9494 73.3254 19.9494 60.0033ZM37.4515 93.0794C40.3371 91.4478 43.3575 90.1466 46.4588 89.1892C49.7016 93.2951 53.6524 96.956 58.2167 100.01C50.5376 99.673 43.4181 97.165 37.4448 93.0794H37.4515ZM59.4977 91.2051V99.6325C54.839 96.6256 50.8073 92.9917 47.5038 88.8791C48.0094 88.7375 48.5218 88.6027 49.0274 88.4746C48.8859 88.1712 48.778 87.8476 48.7106 87.5172C48.0836 87.6723 47.4566 87.8409 46.8363 88.0229C40.6539 79.9663 37.2088 70.2174 37.2088 60.0033C37.2088 49.7623 40.6742 39.9865 46.8835 31.9231C51.0028 33.1232 55.2503 33.7502 59.5044 33.7974V81.9147H60.5157V33.7906C64.7699 33.7434 69.0173 33.1232 73.1367 31.9164C79.346 39.9865 82.8114 49.7556 82.8114 59.9966C82.8114 70.2107 79.3662 79.9595 73.1839 88.0162C72.5636 87.8341 71.9366 87.6723 71.3028 87.5105C71.2354 87.8476 71.1208 88.1645 70.986 88.4679C71.4984 88.596 72.004 88.7241 72.5097 88.8724C69.2061 92.985 65.1744 96.6189 60.5157 99.6258V91.1984H59.5044L59.4977 91.2051ZM61.79 100.003C66.3543 96.956 70.305 93.2884 73.5547 89.1825C76.656 90.1399 79.6763 91.4411 82.5619 93.0726C76.5953 97.1582 69.469 99.6662 61.79 100.003ZM83.4721 92.4254C80.5124 90.7129 77.4043 89.3511 74.2154 88.333C80.3843 80.1618 83.8159 70.3118 83.8159 59.9966C83.8159 49.6544 80.364 39.7842 74.1682 31.5995C77.3504 30.5882 80.4517 29.2331 83.4114 27.5274C93.4839 34.8087 100.051 46.6475 100.051 59.9966C100.051 73.3457 93.5041 85.1441 83.4653 92.4254H83.4721Z" fill="#11092B"/>
<path d="M116.555 44.8475H3.31702V75.1526H116.555V44.8475Z" fill="white"/>
<path d="M116.555 73.467H3.31702V76.838H116.555V73.467Z" fill="#11092B"/>
<path d="M116.555 43.162H3.31702V46.533H116.555V43.162Z" fill="#11092B"/>
<path d="M60.0034 120C26.9139 120 0 93.0861 0 60.0034C0 26.9206 26.9139 0 60.0034 0C93.0929 0 120.007 26.9139 120.007 60.0034C120.007 93.0929 93.0929 120.007 60.0034 120.007V120ZM60.0034 3.37098C28.7747 3.37098 3.37098 28.7747 3.37098 60.0034C3.37098 91.2321 28.7747 116.636 60.0034 116.636C91.2321 116.636 116.636 91.2321 116.636 60.0034C116.636 28.7747 91.2253 3.37098 60.0034 3.37098Z" fill="#11092B"/>
<path d="M17.5157 83.0946L18.2842 84.6385L19.9899 84.888L18.7494 86.088L19.0461 87.787L17.5157 86.9847L15.992 87.787L16.2819 86.088L15.0481 84.888L16.7538 84.6385L17.5157 83.0946Z" fill="#11092B"/>
<path d="M102.639 83.0946L103.401 84.6385L105.107 84.888L103.873 86.088L104.163 87.787L102.639 86.9847L101.116 87.787L101.406 86.088L100.172 84.888L101.878 84.6385L102.639 83.0946Z" fill="#11092B"/>
<path d="M51.4883 89.2432V88.2791C51.4883 88.0701 51.522 87.8813 51.5894 87.7262C51.6568 87.5711 51.7647 87.4296 51.9197 87.3082C52.0748 87.1869 52.2771 87.0722 52.5265 86.9576L53.3827 86.5801C53.5985 86.4857 53.7603 86.3643 53.8749 86.2228C53.9895 86.0812 54.0435 85.8991 54.0435 85.6834C54.0435 85.4474 53.9693 85.2519 53.8277 85.1036C53.6861 84.9553 53.4771 84.8811 53.2142 84.8811C52.9513 84.8811 52.7423 84.9553 52.5939 85.1036C52.4524 85.2519 52.3782 85.4542 52.3782 85.7171H51.4343C51.4343 85.407 51.5017 85.1306 51.6298 84.8744C51.7579 84.6182 51.9602 84.4227 52.2231 84.2743C52.4861 84.1328 52.8164 84.0586 53.2142 84.0586C53.612 84.0586 53.9423 84.1328 54.1985 84.2743C54.4615 84.4159 54.657 84.6047 54.7918 84.8407C54.9267 85.0766 54.9941 85.3463 54.9941 85.6362V85.7239C54.9941 86.1014 54.8862 86.4183 54.6772 86.6677C54.4682 86.9172 54.1581 87.1329 53.7468 87.315L52.8906 87.6925C52.7288 87.7599 52.6142 87.8341 52.5535 87.9082C52.4861 87.9824 52.4591 88.0835 52.4591 88.2184V88.6633L52.2231 88.4072H55.021V89.2432H51.5017H51.4883Z" fill="#11092B"/>
<path d="M58.3314 89.3712C57.9336 89.3712 57.5965 89.3038 57.3201 89.1757C57.0437 89.0476 56.8144 88.8656 56.6459 88.6431C56.4706 88.4206 56.3492 88.1577 56.2683 87.8611C56.1874 87.5644 56.147 87.2475 56.147 86.9172V86.5329C56.147 86.0677 56.2211 85.6497 56.3762 85.2789C56.5313 84.9081 56.7672 84.6114 57.0908 84.3889C57.4145 84.1665 57.8257 84.0586 58.3314 84.0586C58.837 84.0586 59.2348 84.1665 59.5584 84.3889C59.882 84.6047 60.118 84.9013 60.273 85.2789C60.4281 85.6497 60.5023 86.0677 60.5023 86.5329V86.9172C60.5023 87.2475 60.4618 87.5644 60.3809 87.8611C60.3 88.1577 60.1719 88.4206 60.0034 88.6431C59.8281 88.8656 59.6056 89.0476 59.3292 89.1757C59.0528 89.3106 58.7224 89.3712 58.3314 89.3712ZM58.3314 88.4746C58.7359 88.4746 59.0393 88.333 59.2348 88.0498C59.4303 87.7667 59.5314 87.3284 59.5314 86.7284C59.5314 86.0947 59.4303 85.643 59.228 85.3665C59.0258 85.0901 58.7291 84.9485 58.3314 84.9485C57.9336 84.9485 57.6235 85.0901 57.4212 85.3665C57.2189 85.643 57.1178 86.0947 57.1178 86.7149C57.1178 87.3352 57.2189 87.7599 57.4145 88.0498C57.61 88.333 57.9134 88.4746 58.3246 88.4746H58.3314Z" fill="#11092B"/>
<path d="M62.5585 89.2432V84.807L62.8619 85.0429H61.527V84.2002H63.5293V89.2432H62.5585Z" fill="#11092B"/>
<path d="M66.7925 89.3713C66.3948 89.3713 66.0577 89.2904 65.7745 89.1353C65.4913 88.9802 65.2756 88.7712 65.1273 88.5083C64.9789 88.2454 64.9048 87.9622 64.9048 87.6521H65.8487C65.8487 87.8274 65.8891 87.9824 65.97 88.1173C66.0509 88.2521 66.1655 88.3532 66.3071 88.4341C66.4487 88.5083 66.6172 88.5488 66.806 88.5488C66.9948 88.5488 67.1701 88.5083 67.3117 88.4274C67.4532 88.3465 67.5611 88.2319 67.642 88.0903C67.7229 87.9487 67.7566 87.7869 67.7566 87.5981C67.7566 87.4094 67.7162 87.2543 67.642 87.1127C67.5679 86.9644 67.46 86.8498 67.3184 86.7689C67.1768 86.6812 67.0083 86.6408 66.8128 86.6408C66.6442 86.6408 66.4891 86.6745 66.3408 86.7352C66.1925 86.7958 66.0779 86.8835 65.997 86.9914H65.0868L65.343 84.2002H68.269V85.0362H65.7678L66.1183 84.7665L65.9498 86.5059L65.7138 86.4453C65.8487 86.2902 66.0105 86.1621 66.206 86.061C66.4015 85.9598 66.6442 85.9127 66.9409 85.9127C67.3117 85.9127 67.6285 85.9868 67.8915 86.1419C68.1544 86.2902 68.3567 86.4925 68.4915 86.7487C68.6331 86.9981 68.7005 87.2745 68.7005 87.5644V87.6521C68.7005 87.9487 68.6263 88.2319 68.478 88.4948C68.3297 88.7578 68.114 88.9735 67.8308 89.1353C67.5476 89.2971 67.2038 89.378 66.7925 89.378V89.3713Z" fill="#11092B"/>
<path d="M15.1896 67.1566V52.8839H18.8235V67.1566H15.1896Z" fill="#11092B"/>
<path d="M26.8464 67.5477C25.5183 67.5477 24.3991 67.3387 23.4957 66.9206C22.5923 66.5026 21.9046 65.9363 21.4461 65.2082C20.9809 64.4868 20.7517 63.6575 20.7517 62.7137H24.271C24.271 63.0508 24.3654 63.3609 24.5542 63.6441C24.7429 63.9272 25.0261 64.143 25.4037 64.298C25.7812 64.4531 26.2666 64.534 26.8532 64.534C27.3588 64.534 27.797 64.4666 28.1544 64.3385C28.5117 64.2104 28.7881 64.0284 28.9769 63.7924C29.1657 63.5564 29.2601 63.28 29.2601 62.9496C29.2601 62.5316 29.0848 62.208 28.7342 61.9788C28.3836 61.7496 27.7903 61.6012 26.9543 61.5406L26.0374 61.4597C24.5609 61.3316 23.3878 60.8664 22.5181 60.0708C21.6484 59.2753 21.2102 58.2168 21.2102 56.9021C21.2102 55.965 21.4259 55.1627 21.8641 54.4952C22.3024 53.8278 22.9159 53.3221 23.7114 52.9716C24.507 52.621 25.4441 52.4457 26.5296 52.4457C27.7027 52.4457 28.6937 52.6412 29.5095 53.0322C30.3253 53.4233 30.9455 53.9761 31.377 54.684C31.8085 55.3919 32.0243 56.2212 32.0243 57.1583H28.505C28.505 56.8482 28.424 56.5583 28.269 56.2953C28.1139 56.0324 27.8847 55.8301 27.5948 55.6818C27.3049 55.5335 26.9476 55.4593 26.5296 55.4593C26.1385 55.4593 25.8082 55.52 25.5452 55.6481C25.2756 55.7695 25.0733 55.9447 24.9385 56.1672C24.8036 56.3897 24.7362 56.6392 24.7362 56.9089C24.7362 57.2729 24.8576 57.583 25.107 57.846C25.3565 58.1089 25.7879 58.264 26.3947 58.3179L27.3116 58.3988C28.3769 58.4932 29.3275 58.7224 30.15 59.0932C30.9725 59.4641 31.613 59.9697 32.0849 60.6102C32.5569 61.2507 32.7861 62.0327 32.7861 62.9564C32.7861 63.88 32.5501 64.6891 32.0714 65.3835C31.5928 66.0779 30.9186 66.6105 30.0354 66.9881C29.1589 67.3656 28.0937 67.5544 26.8599 67.5544L26.8464 67.5477Z" fill="#11092B"/>
<path d="M41.645 67.5476C40.3438 67.5476 39.2044 67.3251 38.2471 66.8734C37.283 66.4217 36.4807 65.8284 35.8402 65.0935C35.1997 64.3587 34.7278 63.5564 34.4109 62.7001C34.1008 61.8372 33.939 61.0079 33.939 60.1989V59.7674C33.939 58.8707 34.1008 57.9875 34.4311 57.1178C34.7547 56.2481 35.2469 55.466 35.8941 54.7649C36.5414 54.0637 37.3504 53.4974 38.3077 53.0861C39.2651 52.6681 40.3775 52.4591 41.6383 52.4591C42.899 52.4591 43.998 52.6681 44.9553 53.0861C45.9127 53.5041 46.7217 54.0637 47.3689 54.7649C48.0162 55.466 48.5151 56.2548 48.8454 57.1178C49.1758 57.9875 49.3443 58.8707 49.3443 59.7674V60.1989C49.3443 61.0079 49.1825 61.8439 48.8656 62.7001C48.5488 63.5631 48.0634 64.3587 47.4296 65.0935C46.7891 65.8284 45.9868 66.4217 45.0227 66.8734C44.0586 67.3251 42.9327 67.5476 41.6383 67.5476H41.645ZM41.645 64.1429C42.272 64.1429 42.8316 64.0418 43.3238 63.8328C43.8159 63.6238 44.2407 63.3339 44.598 62.9563C44.9553 62.5788 45.2182 62.1405 45.4003 61.6349C45.5823 61.136 45.6767 60.5899 45.6767 60.0034C45.6767 59.3763 45.5823 58.81 45.3935 58.3044C45.2048 57.7987 44.9351 57.3605 44.5845 56.9964C44.2339 56.6324 43.8092 56.3492 43.317 56.1537C42.8181 55.9582 42.2653 55.8638 41.6518 55.8638C41.0382 55.8638 40.4652 55.9582 39.973 56.1537C39.4741 56.3492 39.0561 56.6324 38.6988 56.9964C38.3482 57.3605 38.0785 57.7987 37.8965 58.3044C37.7145 58.81 37.6201 59.3763 37.6201 60.0034C37.6201 60.5899 37.7077 61.136 37.8965 61.6349C38.0853 62.1338 38.3482 62.5788 38.6988 62.9563C39.0494 63.3339 39.4741 63.6305 39.973 63.8328C40.4652 64.0418 41.0315 64.1429 41.6518 64.1429H41.645Z" fill="#11092B"/>
<path d="M60.6101 52.4524C61.6686 52.4524 62.5788 52.6277 63.3541 52.9716C64.1294 53.3154 64.7699 53.8008 65.2688 54.4278C65.7677 55.0548 66.1385 55.7829 66.3813 56.6055C66.624 57.4347 66.7453 58.3247 66.7453 59.2753V60.0573C66.7453 62.471 66.1251 64.2711 64.8913 65.4711C63.6508 66.6712 61.817 67.2712 59.3764 67.2712C58.8909 67.2712 58.3988 67.2577 57.8931 67.2308C57.3875 67.2038 56.9088 67.1634 56.4638 67.1162V64.0688C56.8953 64.1093 57.374 64.143 57.9134 64.1767C58.446 64.2104 58.9786 64.2239 59.4977 64.2239C60.5023 64.2239 61.2843 64.0688 61.8507 63.7519C62.417 63.4418 62.8148 62.9631 63.044 62.3226C63.2732 61.6822 63.3878 60.8731 63.3878 59.8955V58.2168L64.1699 58.1763C64.1564 59.1404 63.9609 59.9427 63.5766 60.59C63.1923 61.2372 62.6597 61.7226 61.9855 62.0462C61.3113 62.3698 60.5225 62.5316 59.6393 62.5316C58.6348 62.5316 57.765 62.3361 57.0302 61.9383C56.2953 61.5406 55.7222 60.981 55.3177 60.2663C54.9132 59.5517 54.7109 58.6955 54.7109 57.7044C54.7109 56.6392 54.9604 55.7088 55.466 54.92C55.9649 54.1312 56.6594 53.5244 57.5493 53.0929C58.4325 52.6614 59.4573 52.4457 60.6169 52.4457L60.6101 52.4524ZM60.7248 55.4661C60.2056 55.4661 59.7539 55.5605 59.3831 55.7425C59.0123 55.9245 58.7224 56.1807 58.5201 56.5043C58.3179 56.8279 58.2168 57.2055 58.2168 57.637C58.2168 58.0685 58.3179 58.4595 58.5067 58.7831C58.7022 59.1 58.9853 59.3562 59.3494 59.5382C59.7135 59.7202 60.1517 59.8146 60.6573 59.8146C61.1158 59.8146 61.5405 59.7337 61.9316 59.5787C62.3226 59.4236 62.6327 59.1876 62.8687 58.864C63.1047 58.5471 63.2193 58.1359 63.2193 57.6437C63.2193 57.2122 63.1181 56.8347 62.9294 56.5111C62.7339 56.1875 62.4507 55.9313 62.0799 55.7492C61.7091 55.5672 61.2574 55.4728 60.718 55.4728L60.7248 55.4661Z" fill="#11092B"/>
<path d="M75.2132 67.5476C74.0535 67.5476 73.0625 67.3588 72.24 66.988C71.4174 66.6172 70.75 66.1116 70.2241 65.4644C69.6982 64.8171 69.3207 64.0755 69.0712 63.2328C68.8218 62.39 68.7004 61.5068 68.7004 60.5832V59.4505C68.7004 58.1493 68.9364 56.9695 69.4016 55.911C69.8735 54.8525 70.5882 54.0165 71.5523 53.3895C72.5164 52.7625 73.7367 52.4524 75.2064 52.4524C76.6762 52.4524 77.8965 52.7625 78.8538 53.3895C79.8112 54.0165 80.5258 54.8525 80.991 55.911C81.463 56.9695 81.6922 58.1493 81.6922 59.4505V60.5832C81.6922 61.5068 81.5708 62.39 81.3214 63.2328C81.0719 64.0755 80.6944 64.8171 80.1752 65.4644C79.6561 66.1116 78.9954 66.6172 78.1729 66.988C77.3504 67.3588 76.3593 67.5476 75.1997 67.5476H75.2132ZM75.2132 64.1834C76.1773 64.1834 76.8919 63.8463 77.3638 63.1654C77.8358 62.4912 78.065 61.4462 78.065 60.0371C78.065 58.5404 77.8223 57.4617 77.3436 56.8009C76.8582 56.1402 76.1503 55.8166 75.2132 55.8166C74.276 55.8166 73.5479 56.147 73.0625 56.8009C72.5771 57.4617 72.3411 58.5269 72.3411 59.9966C72.3411 61.4664 72.5771 62.4709 73.0557 63.1519C73.5344 63.8395 74.2491 64.1766 75.2132 64.1766V64.1834Z" fill="#11092B"/>
<path d="M90.2477 67.5476C89.0881 67.5476 88.097 67.3588 87.2745 66.988C86.452 66.6172 85.7845 66.1116 85.2587 65.4644C84.7328 64.8171 84.3552 64.0755 84.1058 63.2328C83.8563 62.39 83.735 61.5068 83.735 60.5832V59.4505C83.735 58.1493 83.971 56.9695 84.4361 55.911C84.9013 54.8525 85.6227 54.0165 86.5868 53.3895C87.5509 52.7625 88.7712 52.4524 90.241 52.4524C91.7107 52.4524 92.931 52.7625 93.8884 53.3895C94.8457 54.0165 95.5604 54.8525 96.0256 55.911C96.4908 56.9695 96.7267 58.1493 96.7267 59.4505V60.5832C96.7267 61.5068 96.6054 62.39 96.3559 63.2328C96.1065 64.0755 95.7289 64.8171 95.2098 65.4644C94.6907 66.1116 94.0299 66.6172 93.2074 66.988C92.3849 67.3588 91.3938 67.5476 90.2342 67.5476H90.2477ZM90.2477 64.1834C91.2118 64.1834 91.9265 63.8463 92.3984 63.1654C92.8703 62.4912 93.0996 61.4462 93.0996 60.0371C93.0996 58.5404 92.8569 57.4617 92.3782 56.8009C91.8928 56.1402 91.1848 55.8166 90.2477 55.8166C89.3106 55.8166 88.5757 56.147 88.097 56.8009C87.6184 57.4617 87.3756 58.5269 87.3756 59.9966C87.3756 61.4664 87.6116 62.4709 88.0903 63.1519C88.569 63.8395 89.2836 64.1766 90.2477 64.1766V64.1834Z" fill="#11092B"/>
<path d="M101.001 67.1566V55.3852L101.864 56.0526H98.3448V52.8839H104.642V67.1566H101.008H101.001Z" fill="#11092B"/>
</g>
<defs>
<clipPath id="clip0_1581_20353">
<rect width="120" height="120" fill="white"/>
</clipPath>
</defs>
</svg>
