<svg width="120" height="120" viewBox="0 0 120 120" fill="none" xmlns="http://www.w3.org/2000/svg">
<g id="Layer_1" clip-path="url(#clip0_1581_20133)">
<g id="Group">
<g id="Group_2">
<path id="Vector" d="M23.6171 31.4176C23.3137 31.8086 22.9834 32.0851 22.6395 32.2536C22.2889 32.4222 21.9384 32.5098 21.581 32.5098C21.2237 32.5098 20.8866 32.4559 20.5697 32.3345C20.2529 32.2199 19.9697 32.0648 19.727 31.8761L19.5989 31.7749C19.336 31.5659 19.1067 31.3232 18.9112 31.0401C18.7224 30.7569 18.5876 30.4468 18.5134 30.1097C18.4393 29.7726 18.446 29.4152 18.5269 29.0512C18.6146 28.6804 18.7966 28.3096 19.0865 27.9388C19.3899 27.5545 19.7203 27.2713 20.0843 27.096C20.4484 26.914 20.8259 26.8398 21.2102 26.86C21.5945 26.887 21.9653 27.0084 22.3294 27.2376L21.6687 28.0803C21.4529 27.959 21.2372 27.8916 21.0215 27.8983C20.8057 27.8983 20.5967 27.959 20.4012 28.0669C20.1989 28.1815 20.0236 28.3365 19.8618 28.5455C19.7 28.7545 19.5922 28.9635 19.5382 29.186C19.4843 29.4085 19.4843 29.6242 19.5315 29.84C19.5787 30.0557 19.6731 30.258 19.8079 30.4535C19.9427 30.649 20.118 30.8311 20.3338 30.9996C20.5428 31.1614 20.7585 31.2895 20.981 31.3704C21.2035 31.4513 21.426 31.4918 21.6485 31.485C21.8709 31.4783 22.0867 31.4176 22.2889 31.3097C22.4912 31.2019 22.68 31.0401 22.8485 30.8243C23.098 30.5074 23.2261 30.1771 23.2396 29.8332C23.253 29.4894 23.1317 29.186 22.889 28.9163L23.5497 28.0736C23.8261 28.35 24.0216 28.6736 24.143 29.0377C24.2643 29.4018 24.2913 29.7928 24.2104 30.2041C24.1362 30.6153 23.9407 31.0198 23.6238 31.4311L23.6171 31.4176Z" fill="#11092B"/>
<path id="Vector_2" d="M30.3254 24.2846L27.0016 20.0102L27.8174 19.3765L31.1411 23.6509L30.3254 24.2846ZM28.2488 20.172L27.7028 19.4708L29.5972 18.0011L30.1433 18.7023L28.2488 20.172ZM29.6107 21.9249L29.0646 21.2238L30.8512 19.8349L31.3973 20.5361L29.6107 21.9249ZM31.0265 23.7452L30.4804 23.0441L32.4154 21.5406L32.9615 22.2418L31.0265 23.7452Z" fill="#11092B"/>
<path id="Vector_3" d="M39.3326 18.3921L37.1145 13.4098L38.0786 12.985L40.2967 17.9673L39.3326 18.3921ZM39.2719 16.4369L38.9281 15.6549L40.1888 15.0953C40.3641 15.0144 40.499 14.9132 40.6001 14.7851C40.6945 14.657 40.7484 14.5087 40.7619 14.3537C40.7754 14.1986 40.7417 14.03 40.6675 13.8548C40.5933 13.6862 40.4922 13.5446 40.3641 13.4502C40.236 13.3558 40.0944 13.2952 39.9326 13.2749C39.7708 13.2547 39.6023 13.2884 39.427 13.3693L38.1662 13.9289L37.8022 13.1064L38.9618 12.594C39.3596 12.4187 39.7304 12.3243 40.0742 12.3108C40.4181 12.3041 40.7214 12.3783 40.9844 12.5468C41.2473 12.7154 41.4631 12.9783 41.6249 13.3491L41.6721 13.457C41.8339 13.821 41.8878 14.1514 41.8339 14.4615C41.7799 14.7717 41.6316 15.0481 41.3956 15.2908C41.1597 15.5335 40.8428 15.7425 40.445 15.9245L39.2854 16.4369H39.2719ZM42.3463 17.0504L39.8787 15.574L40.9574 15.0953L43.4789 16.5448L42.3463 17.0504Z" fill="#11092B"/>
<path id="Vector_4" d="M48.9196 10.2748L48.7578 9.36463L52.8771 8.62976L53.039 9.53992L48.9196 10.2748ZM51.2523 14.4144L50.4366 9.85005L51.4748 9.66128L52.2906 14.2256L51.2523 14.4144Z" fill="#11092B"/>
<path id="Vector_5" d="M61.0619 13.6053L61.2439 8.19153L62.2957 8.22524L62.1136 13.639L61.0619 13.6053Z" fill="#11092B"/>
<path id="Vector_6" d="M69.7994 14.6099L71.0939 9.3512L72.1187 9.60739L70.8242 14.8594L69.7994 14.6099ZM71.2152 12.6413L71.431 11.7783L73.5345 12.2907L73.3187 13.1604L71.2152 12.6413ZM71.7613 10.4367L71.9771 9.57368L74.1817 10.1198L73.966 10.9827L71.7613 10.4367Z" fill="#11092B"/>
<path id="Vector_7" d="M79.7776 18.0011L82.144 13.1334L83.0946 13.5919L80.7282 18.4596L79.7776 18.0011Z" fill="#11092B"/>
<path id="Vector_8" d="M87.342 22.4642L90.6793 18.1965L91.4883 18.8303L88.1511 23.0979L87.342 22.4642ZM88.0365 23.0103L88.5826 22.3091L90.5175 23.8193L89.9714 24.5205L88.0365 23.0103ZM89.459 21.19L90.0051 20.4888L91.785 21.8844L91.2389 22.5855L89.459 21.19ZM90.8276 19.4438L91.3737 18.7426L93.2615 20.2191L92.7154 20.9203L90.8276 19.4438Z" fill="#11092B"/>
<path id="Vector_9" d="M95.2301 29.7523L99.5517 26.3813L100.199 27.2106L95.8773 30.5816L95.2301 29.7523ZM95.7829 30.467L96.5583 29.8669L97.2459 30.7501C97.4145 30.9659 97.6033 31.1412 97.8055 31.2558C98.0078 31.3771 98.2235 31.4513 98.4393 31.4715C98.655 31.4917 98.8775 31.4715 99.1 31.4108C99.3225 31.3502 99.5315 31.2288 99.7405 31.067C99.9495 30.9052 100.118 30.7232 100.233 30.5276C100.354 30.3321 100.421 30.1231 100.448 29.9074C100.475 29.6916 100.448 29.4692 100.381 29.2467C100.307 29.0242 100.192 28.8017 100.017 28.586L99.3292 27.7028L100.105 27.1027L100.752 27.932C101.055 28.3163 101.257 28.7006 101.372 29.0714C101.48 29.4489 101.514 29.8063 101.466 30.1501C101.419 30.4939 101.311 30.8176 101.129 31.1075C100.954 31.3974 100.732 31.6468 100.462 31.8626L100.334 31.9637C100.078 32.1659 99.7877 32.3143 99.4573 32.4154C99.1337 32.5165 98.7898 32.5502 98.4393 32.5098C98.0887 32.4761 97.7381 32.3615 97.3943 32.1659C97.0504 31.9704 96.7268 31.6873 96.4234 31.2962L95.7762 30.467H95.7829Z" fill="#11092B"/>
</g>
<g id="Group_3">
<path id="Vector_10" d="M24.0284 98.5539C23.6643 98.2168 23.4216 97.8663 23.28 97.5022C23.1452 97.1381 23.0912 96.7808 23.1182 96.4235C23.1519 96.0662 23.2395 95.7358 23.3811 95.4324C23.5295 95.1223 23.7047 94.8594 23.9137 94.6369L24.0284 94.5155C24.2576 94.2728 24.5205 94.0638 24.8239 93.902C25.1273 93.7402 25.4442 93.6323 25.788 93.5851C26.1318 93.5379 26.4824 93.5784 26.8465 93.693C27.2038 93.8144 27.5611 94.0301 27.8982 94.3537C28.2556 94.6908 28.505 95.0481 28.6533 95.4257C28.7949 95.8032 28.8421 96.1875 28.7814 96.5651C28.7208 96.9426 28.5657 97.3067 28.3095 97.6438L27.5274 96.9157C27.669 96.7134 27.7499 96.5044 27.7701 96.2887C27.7836 96.0729 27.7499 95.8639 27.6555 95.6549C27.5611 95.4459 27.4196 95.2504 27.2308 95.0751C27.042 94.8931 26.833 94.7717 26.6173 94.6976C26.4015 94.6234 26.1858 94.6032 25.97 94.6301C25.7543 94.6571 25.5453 94.7313 25.3363 94.8459C25.1273 94.9605 24.9318 95.1223 24.743 95.3178C24.561 95.5133 24.4194 95.7156 24.3115 95.9313C24.2104 96.1471 24.1497 96.3628 24.1362 96.5853C24.1227 96.8078 24.1632 97.0235 24.2508 97.2393C24.3385 97.455 24.4868 97.6505 24.6891 97.8393C24.9857 98.1157 25.3026 98.2775 25.6397 98.318C25.9768 98.3584 26.2937 98.2708 26.5836 98.0483L27.3656 98.7764C27.0622 99.0259 26.7251 99.1944 26.3543 99.2821C25.9768 99.3697 25.5925 99.3562 25.188 99.2484C24.7835 99.1338 24.3992 98.9045 24.0216 98.5539H24.0284Z" fill="#11092B"/>
<path id="Vector_11" d="M35.0784 106.483C34.6469 106.253 34.3166 105.977 34.0806 105.653C33.8446 105.33 33.6896 104.993 33.6154 104.635C33.5412 104.278 33.5345 103.927 33.5817 103.59C33.6289 103.253 33.73 102.95 33.8783 102.68L33.9592 102.538C34.1143 102.249 34.3233 101.986 34.5862 101.75C34.8492 101.514 35.1458 101.338 35.4829 101.217C35.82 101.096 36.1841 101.049 36.5751 101.075C36.9661 101.102 37.3707 101.231 37.7887 101.453C38.2067 101.676 38.537 101.945 38.773 102.255C39.0157 102.565 39.1775 102.896 39.2584 103.246C39.3393 103.597 39.3595 103.941 39.3056 104.285C39.2517 104.628 39.1505 104.952 38.9955 105.242L38.9146 105.384C38.773 105.647 38.5707 105.896 38.3145 106.125C38.0583 106.354 37.7617 106.536 37.4179 106.678C37.074 106.82 36.7099 106.874 36.3122 106.853C35.9144 106.833 35.5031 106.712 35.0717 106.476L35.0784 106.483ZM35.5436 105.62C35.7863 105.748 36.029 105.829 36.2717 105.842C36.5144 105.862 36.7437 105.829 36.9661 105.748C37.1886 105.667 37.3841 105.545 37.5662 105.39C37.7415 105.229 37.8965 105.04 38.0111 104.817C38.1392 104.581 38.2201 104.345 38.2539 104.103C38.2876 103.86 38.2741 103.631 38.2201 103.408C38.1662 103.186 38.0583 102.977 37.91 102.795C37.7617 102.606 37.5662 102.451 37.3167 102.316C37.074 102.188 36.838 102.114 36.5953 102.087C36.3526 102.06 36.1234 102.087 35.9077 102.168C35.6919 102.249 35.4897 102.363 35.3144 102.525C35.1323 102.687 34.984 102.882 34.8559 103.118C34.7346 103.341 34.6604 103.57 34.6267 103.806C34.593 104.042 34.5997 104.278 34.6537 104.507C34.7076 104.736 34.8087 104.945 34.957 105.141C35.1054 105.336 35.3009 105.491 35.5436 105.62Z" fill="#11092B"/>
<path id="Vector_12" d="M45.7374 110.716L46.9105 105.431L48.3129 105.741L48.9331 109.193L49.0612 109.22L51.0838 106.354L52.5131 106.671L51.34 111.957L50.322 111.728L51.3265 107.217L51.4546 107.258L49.2702 110.359L48.2185 110.123L47.5443 106.388L47.6859 106.402L46.6813 110.912L45.7374 110.703V110.716Z" fill="#11092B"/>
<path id="Vector_13" d="M60.1787 112.624L59.9832 107.177L61.0349 107.136L61.2304 112.584L60.1787 112.624ZM61.0214 110.932L60.9877 110.022L62.0394 109.982C62.2484 109.975 62.4237 109.928 62.5653 109.833C62.7069 109.746 62.8148 109.624 62.8889 109.476C62.9631 109.328 62.9968 109.152 62.9901 108.97C62.9833 108.775 62.9361 108.599 62.8552 108.458C62.7743 108.316 62.653 108.202 62.5046 108.128C62.3563 108.053 62.1743 108.02 61.972 108.026L60.9203 108.067L60.8866 107.157L61.8507 107.123C62.3024 107.109 62.6934 107.163 63.017 107.305C63.3406 107.44 63.5901 107.642 63.7721 107.912C63.9542 108.181 64.0485 108.505 64.062 108.883V109.004C64.0823 109.375 64.0081 109.698 63.853 109.982C63.698 110.265 63.462 110.487 63.1451 110.649C62.835 110.811 62.4507 110.898 61.9923 110.912L61.0282 110.946L61.0214 110.932Z" fill="#11092B"/>
<path id="Vector_14" d="M71.5524 111.391L71.8692 105.68L73.5345 105.215L76.8178 109.921L75.7661 110.211L72.9614 106.118L73.3727 106.172L72.4828 106.422L72.8131 106.159L72.5771 111.101L71.5659 111.384L71.5524 111.391ZM72.4086 109.665L72.4895 108.707L74.5997 108.121L75.1593 108.896L72.4086 109.665Z" fill="#11092B"/>
<path id="Vector_15" d="M84.5036 106.617L81.7529 101.952L83.2429 101.075L87.5038 103.833L87.7196 103.705L87.6589 103.894L85.2857 99.8686L86.1419 99.3629L88.8927 104.028L87.3892 104.912L83.1283 102.154L82.9125 102.282L82.9732 102.093L85.3464 106.118L84.5036 106.617Z" fill="#11092B"/>
<path id="Vector_16" d="M95.1155 96.3358L91.6029 95.1088L92.3715 94.347L95.102 95.3245L94.8795 95.4391L95.3717 94.947L95.2436 95.1762L94.2053 92.5131L94.9334 91.7917L96.2279 95.2234L95.1155 96.3291V96.3358ZM96.7672 97.6168L95.1964 96.0324L95.9312 95.2976L97.5021 96.8819L96.7672 97.6168Z" fill="#11092B"/>
</g>
</g>
<path id="Vector_17" d="M60.0034 102.248C36.7099 102.248 17.7583 83.2968 17.7583 60.0034C17.7583 36.7099 36.7099 17.7583 60.0034 17.7583C83.2968 17.7583 102.248 36.7099 102.248 60.0034C102.248 83.2968 83.2968 102.248 60.0034 102.248ZM60.0034 21.1293C38.5707 21.1293 21.1293 38.5707 21.1293 60.0034C21.1293 81.436 38.5707 98.8775 60.0034 98.8775C81.436 98.8775 98.8775 81.436 98.8775 60.0034C98.8775 38.5707 81.436 21.1293 60.0034 21.1293Z" fill="#11092B"/>
<path id="Vector_18" d="M60.0033 18.9381C37.3571 18.9381 18.9381 37.3571 18.9381 60.0033C18.9381 82.6496 37.3571 101.069 60.0033 101.069C82.6496 101.069 101.069 82.6496 101.069 60.0033C101.069 37.3571 82.6496 18.9381 60.0033 18.9381ZM82.508 26.8869C79.6224 28.5117 76.6088 29.8061 73.5075 30.7635C70.2713 26.6779 66.334 23.0372 61.79 19.9966C69.4488 20.3337 76.5481 22.8282 82.508 26.8869ZM60.509 20.3674C65.1474 23.3608 69.1656 26.9745 72.4625 31.0669C68.5521 32.1658 64.5339 32.7389 60.509 32.7861V20.3674ZM58.2167 19.9966C53.6726 23.0305 49.7353 26.6779 46.4992 30.7635C43.4047 29.8129 40.3843 28.5184 37.5054 26.8869C43.4586 22.8282 50.5646 20.3337 58.2167 19.9966ZM59.4977 20.3674V32.7861C55.4727 32.7389 51.4545 32.1658 47.5442 31.0669C50.841 26.9813 54.8592 23.3608 59.4977 20.3741V20.3674ZM19.9494 60.0033C19.9494 46.6543 26.5228 34.8154 36.5953 27.5341C39.555 29.2398 42.6563 30.6017 45.8385 31.6062C39.6426 39.791 36.1908 49.6612 36.1908 60.0033C36.1908 70.3185 39.6224 80.1685 45.798 88.3398C42.6091 89.3511 39.5011 90.7197 36.5413 92.4321C26.5026 85.1441 19.9494 73.3254 19.9494 60.0033ZM37.4515 93.0794C40.3371 91.4478 43.3575 90.1466 46.4588 89.1892C49.7016 93.2951 53.6524 96.956 58.2167 100.01C50.5376 99.673 43.4181 97.165 37.4448 93.0794H37.4515ZM59.4977 91.2051V99.6325C54.839 96.6256 50.8073 92.9917 47.5038 88.8791C48.0094 88.7375 48.5151 88.6027 49.0274 88.4746C48.8859 88.1712 48.778 87.8476 48.7106 87.5172C48.0836 87.6723 47.4566 87.8409 46.8363 88.0229C40.6539 79.9663 37.2088 70.2174 37.2088 60.0033C37.2088 49.7623 40.6742 39.9865 46.8835 31.9231C51.0028 33.1232 55.2503 33.7502 59.5044 33.7974V81.9147H60.5157V33.7906C64.7699 33.7434 69.0173 33.1232 73.1367 31.9164C79.346 39.9865 82.8114 49.7556 82.8114 59.9966C82.8114 70.2107 79.3662 79.9595 73.1839 88.0162C72.5636 87.8341 71.9366 87.6723 71.3028 87.5105C71.2354 87.8476 71.1208 88.1645 70.986 88.4679C71.4984 88.596 72.004 88.7241 72.5097 88.8724C69.2061 92.985 65.1744 96.6189 60.5157 99.6258V91.1984H59.5044L59.4977 91.2051ZM61.79 100.003C66.3543 96.956 70.305 93.2884 73.5547 89.1825C76.656 90.1399 79.6763 91.4411 82.5619 93.0726C76.5953 97.1582 69.469 99.6662 61.79 100.003ZM83.4721 92.4254C80.5124 90.7129 77.4043 89.3511 74.2154 88.333C80.3843 80.1618 83.8159 70.3118 83.8159 59.9966C83.8159 49.6544 80.364 39.7842 74.1682 31.5995C77.3504 30.5882 80.4517 29.2331 83.4114 27.5274C93.4839 34.8087 100.051 46.6475 100.051 59.9966C100.051 73.3457 93.5041 85.1441 83.4653 92.4254H83.4721Z" fill="#11092B"/>
<g id="Group_4">
<path id="Vector_19" d="M116.555 44.8475H3.31702V75.1526H116.555V44.8475Z" fill="white"/>
<g id="Group_5">
<path id="Vector_20" d="M116.555 73.467H3.31702V76.838H116.555V73.467Z" fill="#11092B"/>
<path id="Vector_21" d="M116.555 43.162H3.31702V46.533H116.555V43.162Z" fill="#11092B"/>
</g>
</g>
<path id="Vector_22" d="M60.0034 120C26.9139 120 0 93.0861 0 60.0034C0 26.9206 26.9139 0 60.0034 0C93.0929 0 120.007 26.9139 120.007 60.0034C120.007 93.0929 93.0929 120.007 60.0034 120.007V120ZM60.0034 3.37098C28.7747 3.37098 3.37098 28.7747 3.37098 60.0034C3.37098 91.2321 28.7747 116.636 60.0034 116.636C91.2321 116.636 116.636 91.2321 116.636 60.0034C116.636 28.7747 91.2253 3.37098 60.0034 3.37098Z" fill="#11092B"/>
<path id="Vector_23" d="M17.5157 83.0946L18.2842 84.6385L19.9899 84.888L18.7562 86.088L19.0461 87.787L17.5157 86.9847L15.992 87.787L16.2819 86.088L15.0481 84.888L16.7538 84.6385L17.5157 83.0946Z" fill="#11092B"/>
<path id="Vector_24" d="M102.639 83.0946L103.401 84.6385L105.107 84.888L103.873 86.088L104.163 87.787L102.639 86.9847L101.116 87.787L101.406 86.088L100.172 84.888L101.878 84.6385L102.639 83.0946Z" fill="#11092B"/>
<g id="Group_6">
<path id="Vector_25" d="M51.5288 89.2432V88.2791C51.5288 88.0701 51.5625 87.8813 51.6299 87.7262C51.6973 87.5711 51.8052 87.4296 51.9603 87.3082C52.1153 87.1869 52.3176 87.0722 52.5671 86.9576L53.4233 86.5801C53.639 86.4857 53.8008 86.3643 53.9154 86.2228C54.0301 86.0812 54.084 85.8991 54.084 85.6834C54.084 85.4474 54.0098 85.2519 53.8682 85.1036C53.7267 84.9553 53.5177 84.8811 53.2547 84.8811C52.9918 84.8811 52.7828 84.9553 52.6345 85.1036C52.4929 85.2519 52.4187 85.4542 52.4187 85.7171H51.4749C51.4749 85.407 51.5423 85.1306 51.6704 84.8744C51.7985 84.6182 52.0007 84.4227 52.2637 84.2743C52.5266 84.1328 52.857 84.0586 53.2547 84.0586C53.6525 84.0586 53.9829 84.1328 54.2391 84.2743C54.502 84.4159 54.6975 84.6047 54.8323 84.8407C54.9672 85.0766 55.0346 85.3463 55.0346 85.6362V85.7239C55.0346 86.1014 54.9267 86.4183 54.7177 86.6677C54.5087 86.9172 54.1986 87.1329 53.7873 87.315L52.9311 87.6925C52.7693 87.7599 52.6547 87.8341 52.594 87.9082C52.5266 87.9824 52.4996 88.0835 52.4996 88.2184V88.6633L52.2637 88.4072H55.0616V89.2432H51.5423H51.5288Z" fill="#11092B"/>
<path id="Vector_26" d="M58.3719 89.3712C57.9741 89.3712 57.637 89.3038 57.3606 89.1757C57.0842 89.0476 56.855 88.8656 56.6864 88.6431C56.5111 88.4206 56.3898 88.1577 56.3089 87.8611C56.228 87.5644 56.1875 87.2475 56.1875 86.9172V86.5329C56.1875 86.0677 56.2617 85.6497 56.4167 85.2789C56.5718 84.9081 56.8078 84.6114 57.1314 84.3889C57.455 84.1665 57.8662 84.0586 58.3719 84.0586C58.8775 84.0586 59.2753 84.1665 59.5989 84.3889C59.9225 84.6047 60.1585 84.9013 60.3136 85.2789C60.4686 85.6497 60.5428 86.0677 60.5428 86.5329V86.9172C60.5428 87.2475 60.5024 87.5644 60.4215 87.8611C60.3405 88.1577 60.2124 88.4206 60.0439 88.6431C59.8686 88.8656 59.6461 89.0476 59.3697 89.1757C59.0933 89.3106 58.7629 89.3712 58.3719 89.3712ZM58.3719 88.4746C58.7764 88.4746 59.0798 88.333 59.2753 88.0498C59.4708 87.7667 59.572 87.3284 59.572 86.7284C59.572 86.0947 59.4708 85.643 59.2686 85.3665C59.0663 85.0901 58.7697 84.9485 58.3719 84.9485C57.9741 84.9485 57.664 85.0901 57.4617 85.3665C57.2595 85.643 57.1583 86.0947 57.1583 86.7149C57.1583 87.3352 57.2595 87.7599 57.455 88.0498C57.6505 88.333 57.9539 88.4746 58.3652 88.4746H58.3719Z" fill="#11092B"/>
<path id="Vector_27" d="M62.599 89.2432V84.807L62.9024 85.0429H61.5675V84.2002H63.5699V89.2432H62.599Z" fill="#11092B"/>
<path id="Vector_28" d="M66.7116 89.3713C66.3273 89.3713 65.9902 89.2971 65.7138 89.1555C65.4374 89.014 65.2216 88.8117 65.0733 88.5622C64.925 88.3128 64.8508 88.0364 64.8508 87.733H65.7947C65.7947 87.9757 65.8756 88.1712 66.0374 88.3263C66.1992 88.4746 66.4217 88.5488 66.7049 88.5488C66.8936 88.5488 67.0554 88.515 67.1903 88.4409C67.3251 88.3667 67.433 88.2723 67.5072 88.1442C67.5813 88.0161 67.615 87.8678 67.615 87.706C67.615 87.4566 67.5341 87.2543 67.3723 87.0925C67.2105 86.9307 66.988 86.8565 66.7116 86.8565C66.57 86.8565 66.4554 86.8767 66.3475 86.9172C66.2397 86.9577 66.152 87.0049 66.0779 87.0588L65.6194 86.2835L67.2847 85.1508L67.2173 85.0362H65.0531V84.2002H68.3432V85.2115L66.6374 86.3441L66.1048 86.2497C66.1925 86.2228 66.2869 86.2026 66.388 86.1823C66.4891 86.1688 66.597 86.1554 66.7183 86.1554C67.1026 86.1554 67.4263 86.2228 67.7027 86.3509C67.9791 86.479 68.1881 86.661 68.3364 86.8902C68.4847 87.1195 68.5589 87.3824 68.5589 87.6858V87.7734C68.5589 88.0701 68.4847 88.333 68.3364 88.5757C68.1881 88.8184 67.9791 89.0072 67.7027 89.1555C67.4263 89.2971 67.0892 89.3713 66.6981 89.3713H66.7116Z" fill="#11092B"/>
</g>
<g id="Group_7">
<path id="Vector_29" d="M9.73535 67.1566V52.8839H13.3693V67.1566H9.73535Z" fill="#11092B"/>
<path id="Vector_30" d="M21.3922 67.5477C20.064 67.5477 18.9449 67.3387 18.0415 66.9206C17.138 66.5026 16.4504 65.9363 15.9919 65.2082C15.5267 64.4868 15.2975 63.6575 15.2975 62.7137H18.8168C18.8168 63.0508 18.9112 63.3609 19.0999 63.6441C19.2887 63.9272 19.5719 64.143 19.9494 64.298C20.327 64.4531 20.8124 64.534 21.399 64.534C21.9046 64.534 22.3428 64.4666 22.7001 64.3385C23.0575 64.2104 23.3339 64.0284 23.5227 63.7924C23.7114 63.5564 23.8058 63.28 23.8058 62.9496C23.8058 62.5316 23.6305 62.208 23.28 61.9788C22.9294 61.7496 22.3361 61.6012 21.5001 61.5406L20.5832 61.4597C19.1134 61.3316 17.9403 60.8664 17.0639 60.0708C16.1874 59.2753 15.7559 58.2168 15.7559 56.9021C15.7559 55.965 15.9717 55.1627 16.4099 54.4952C16.8481 53.8278 17.4617 53.3221 18.2572 52.9716C19.0528 52.621 19.9899 52.4457 21.0753 52.4457C22.2484 52.4457 23.2395 52.6412 24.0553 53.0322C24.8711 53.4233 25.4913 53.9761 25.9228 54.684C26.3543 55.3919 26.57 56.2212 26.57 57.1583H23.0507C23.0507 56.8482 22.9698 56.5583 22.8148 56.2953C22.6597 56.0324 22.4305 55.8301 22.1406 55.6818C21.8439 55.5335 21.4933 55.4593 21.0753 55.4593C20.6843 55.4593 20.3539 55.52 20.091 55.6481C19.8213 55.7695 19.6191 55.9447 19.4842 56.1672C19.3494 56.3897 19.282 56.6392 19.282 56.9089C19.282 57.2729 19.4033 57.583 19.6528 57.846C19.9022 58.1089 20.327 58.264 20.9405 58.3179L21.8574 58.3988C22.9226 58.4932 23.8732 58.7224 24.6958 59.0932C25.5183 59.4641 26.1588 59.9697 26.6307 60.6102C27.1026 61.2507 27.3319 62.0327 27.3319 62.9564C27.3319 63.88 27.0959 64.6891 26.6172 65.3835C26.1385 66.0712 25.4643 66.6105 24.5812 66.9881C23.698 67.3656 22.6395 67.5544 21.4057 67.5544L21.3922 67.5477Z" fill="#11092B"/>
<path id="Vector_31" d="M36.1908 67.5476C34.8896 67.5476 33.7502 67.3251 32.7861 66.8734C31.822 66.4217 31.0197 65.8284 30.3793 65.0935C29.7388 64.3587 29.2668 63.5564 28.95 62.7001C28.6398 61.8372 28.478 61.0079 28.478 60.1989V59.7674C28.478 58.8707 28.6398 57.9875 28.9702 57.1178C29.2938 56.2481 29.786 55.466 30.4332 54.7649C31.0804 54.0637 31.8895 53.4974 32.8468 53.0861C33.8042 52.6681 34.9166 52.4591 36.1773 52.4591C37.4381 52.4591 38.5303 52.6681 39.4944 53.0861C40.4517 53.5041 41.254 54.0637 41.908 54.7649C42.562 55.466 43.0541 56.2548 43.3845 57.1178C43.7148 57.9875 43.8834 58.8707 43.8834 59.7674V60.1989C43.8834 61.0079 43.7216 61.8439 43.4047 62.7001C43.0878 63.5631 42.6092 64.3587 41.9687 65.0935C41.3282 65.8284 40.5259 66.4217 39.5618 66.8734C38.5977 67.3251 37.4718 67.5476 36.1773 67.5476H36.1908ZM36.1908 64.1429C36.8178 64.1429 37.3774 64.0418 37.8696 63.8328C38.3617 63.6238 38.7865 63.3339 39.1438 62.9563C39.4944 62.5788 39.7641 62.1405 39.9461 61.6349C40.1281 61.136 40.2225 60.5899 40.2225 60.0034C40.2225 59.3763 40.1281 58.81 39.9393 58.3044C39.7506 57.7987 39.4809 57.3605 39.1303 56.9964C38.7797 56.6324 38.355 56.3492 37.8628 56.1537C37.3639 55.9582 36.8111 55.8638 36.1976 55.8638C35.584 55.8638 35.011 55.9582 34.5188 56.1537C34.0199 56.3492 33.6019 56.6324 33.2446 56.9964C32.894 57.3605 32.6243 57.7987 32.4423 58.3044C32.2603 58.81 32.1659 59.3763 32.1659 60.0034C32.1659 60.5899 32.2535 61.136 32.4423 61.6349C32.6243 62.1338 32.894 62.5788 33.2446 62.9563C33.5952 63.3339 34.0199 63.6305 34.5188 63.8328C35.011 64.0418 35.5773 64.1429 36.1976 64.1429H36.1908Z" fill="#11092B"/>
<path id="Vector_32" d="M49.6814 67.1566V64.0283C49.6814 63.4013 49.7892 62.8485 50.005 62.3765C50.2207 61.8979 50.5578 61.4799 51.023 61.1158C51.4882 60.7517 52.0882 60.4146 52.8298 60.0978L55.0008 59.1809C55.5603 58.9449 55.9716 58.6685 56.221 58.3381C56.4772 58.0145 56.6053 57.6032 56.6053 57.1043C56.6053 56.6459 56.4503 56.2616 56.1469 55.938C55.8435 55.6211 55.3918 55.4593 54.8052 55.4593C54.2187 55.4593 53.7535 55.6278 53.4568 55.9582C53.1602 56.2886 53.0051 56.7403 53.0051 57.2999H49.4858C49.4858 56.3627 49.6881 55.5267 50.0926 54.7986C50.4971 54.0705 51.0904 53.4974 51.8792 53.0794C52.668 52.6614 53.6389 52.4524 54.8052 52.4524C55.9716 52.4524 56.9222 52.6479 57.711 53.0457C58.4998 53.4435 59.0999 53.9828 59.5111 54.6705C59.9224 55.3582 60.1246 56.1268 60.1246 56.9897V57.2257C60.1246 58.3314 59.828 59.2483 59.228 59.9629C58.6279 60.6776 57.6638 61.3248 56.3357 61.8979L54.1648 62.8148C53.8546 62.9429 53.6187 63.0912 53.4703 63.2463C53.322 63.4013 53.2479 63.6103 53.2479 63.8733V64.5744L52.4051 64.0283H60.0909V67.1566H49.6881H49.6814Z" fill="#11092B"/>
<path id="Vector_33" d="M63.853 67.1566L68.505 56.1875L68.2488 55.8571H61.6012V52.8839H72.8265V54.8391L67.7229 67.1566H63.853ZM61.6079 58.1629V52.8839H64.5407V58.1629H61.6079Z" fill="#11092B"/>
<path id="Vector_34" d="M80.6674 67.5476C79.5078 67.5476 78.5167 67.3588 77.6942 66.988C76.8717 66.6172 76.2042 66.1116 75.6783 65.4644C75.1592 64.8171 74.7749 64.0755 74.5255 63.2328C74.276 62.39 74.1547 61.5068 74.1547 60.5832V59.4505C74.1547 58.1493 74.3906 56.9695 74.8558 55.911C75.3278 54.8525 76.0424 54.0165 77.0065 53.3895C77.9706 52.7625 79.1909 52.4524 80.6606 52.4524C82.1304 52.4524 83.3507 52.7625 84.308 53.3895C85.2654 54.0165 85.98 54.8525 86.452 55.911C86.9239 56.9695 87.1531 58.1493 87.1531 59.4505V60.5832C87.1531 61.5068 87.0318 62.39 86.7823 63.2328C86.5329 64.0755 86.1553 64.8171 85.6362 65.4644C85.1171 66.1116 84.4564 66.6172 83.6339 66.988C82.8113 67.3588 81.8203 67.5476 80.6606 67.5476H80.6674ZM80.6674 64.1834C81.6315 64.1834 82.3461 63.8463 82.8181 63.1654C83.29 62.4912 83.5192 61.4462 83.5192 60.0371C83.5192 58.5404 83.2765 57.4617 82.7978 56.8009C82.3124 56.1402 81.6045 55.8166 80.6674 55.8166C79.7303 55.8166 78.9954 56.147 78.5167 56.8009C78.0313 57.4617 77.7953 58.5269 77.7953 59.9966C77.7953 61.4664 78.0313 62.4709 78.51 63.1519C78.9886 63.8395 79.7033 64.1766 80.6674 64.1766V64.1834Z" fill="#11092B"/>
<path id="Vector_35" d="M95.7088 67.5476C94.5492 67.5476 93.5581 67.3588 92.7356 66.988C91.9131 66.6172 91.2456 66.1116 90.7197 65.4644C90.2006 64.8171 89.8163 64.0755 89.5669 63.2328C89.3174 62.39 89.196 61.5068 89.196 60.5832V59.4505C89.196 58.1493 89.432 56.9695 89.8972 55.911C90.3691 54.8525 91.0838 54.0165 92.0479 53.3895C93.012 52.7625 94.2323 52.4524 95.702 52.4524C97.1718 52.4524 98.3921 52.7625 99.3494 53.3895C100.307 54.0165 101.021 54.8525 101.493 55.911C101.965 56.9695 102.195 58.1493 102.195 59.4505V60.5832C102.195 61.5068 102.073 62.39 101.824 63.2328C101.574 64.0755 101.197 64.8171 100.678 65.4644C100.158 66.1116 99.4977 66.6172 98.6752 66.988C97.8527 67.3588 96.8616 67.5476 95.702 67.5476H95.7088ZM95.7088 64.1834C96.6729 64.1834 97.3875 63.8463 97.8594 63.1654C98.3314 62.4912 98.5606 61.4462 98.5606 60.0371C98.5606 58.5404 98.3179 57.4617 97.8392 56.8009C97.3538 56.1402 96.6459 55.8166 95.7088 55.8166C94.7716 55.8166 94.0368 56.147 93.5581 56.8009C93.0727 57.4617 92.8367 58.5269 92.8367 59.9966C92.8367 61.4664 93.0727 62.4709 93.5513 63.1519C94.03 63.8395 94.7447 64.1766 95.7088 64.1766V64.1834Z" fill="#11092B"/>
<path id="Vector_36" d="M106.455 67.1566V55.3852L107.318 56.0526H103.799V52.8839H110.096V67.1566H106.462H106.455Z" fill="#11092B"/>
</g>
</g>
<defs>
<clipPath id="clip0_1581_20133">
<rect width="120" height="120" fill="white"/>
</clipPath>
</defs>
</svg>
