<svg width="127" height="119" viewBox="0 0 127 119" fill="none" xmlns="http://www.w3.org/2000/svg">
<g id="Group 368">
<path id="Vector" d="M63.5186 23.026V116.2" stroke="#11092B" stroke-width="4" stroke-miterlimit="10"/>
<path id="Vector_2" d="M26.1587 116.2H100.88" stroke="#11092B" stroke-width="4" stroke-miterlimit="10"/>
<path id="Vector_3" d="M22.1382 11.7894H53.9159" stroke="#11092B" stroke-width="4" stroke-miterlimit="10"/>
<g id="Group">
<g id="Group_2">
<path id="Vector_4" d="M2.25049 67.5887L22.1382 11.7894L42.0259 67.5887" stroke="#11092B" stroke-width="4" stroke-linejoin="round"/>
<path id="Vector_5" d="M42.0259 67.5887C42.0259 78.5696 33.1191 87.4764 22.1382 87.4764C11.1573 87.4764 2.25049 78.5696 2.25049 67.5887H42.0259Z" stroke="#884BEF" stroke-width="4" stroke-linejoin="round"/>
</g>
<g id="Group_3">
<path id="Vector_6" d="M85.0112 67.5887L104.899 11.7894L124.787 67.5887" stroke="#11092B" stroke-width="4" stroke-linejoin="round"/>
<path id="Vector_7" d="M124.787 67.5887C124.787 78.5695 115.88 87.4764 104.899 87.4764C93.9181 87.4764 85.0112 78.5695 85.0112 67.5887H124.787Z" stroke="#884BEF" stroke-width="4" stroke-linejoin="round"/>
</g>
</g>
<path id="Vector_8" d="M63.9307 23.0402C69.5088 23.0402 74.0308 18.5182 74.0308 12.9401C74.0308 7.36194 69.5088 2.83997 63.9307 2.83997C58.3525 2.83997 53.8306 7.36194 53.8306 12.9401C53.8306 18.5182 58.3525 23.0402 63.9307 23.0402Z" stroke="#11092B" stroke-width="4" stroke-miterlimit="10"/>
<path id="Vector_9" d="M73.1221 11.7894H104.9" stroke="#11092B" stroke-width="4" stroke-miterlimit="10"/>
</g>
</svg>
