<svg width="129" height="127" viewBox="0 0 129 127" fill="none" xmlns="http://www.w3.org/2000/svg">
<path d="M59.9832 75.142C59.9832 69.383 64.6502 64.703 70.4222 64.703C76.1812 64.703 80.8612 69.37 80.8612 75.142V88.987" stroke="#11092B" stroke-width="4" stroke-miterlimit="10"/>
<path d="M80.8481 80.55C80.8481 74.791 85.5151 70.111 91.2871 70.111C97.0461 70.111 101.726 74.778 101.726 80.55V94.395" stroke="#11092B" stroke-width="4" stroke-miterlimit="10"/>
<path d="M22.6341 122.358L9.20507 108.929C5.13607 104.86 5.13607 98.243 9.20507 94.174C13.2741 90.105 19.8911 90.105 23.9601 94.174L39.1051 109.319V45.424C39.1051 39.665 43.7721 34.985 49.5441 34.985C55.3031 34.985 59.9831 39.652 59.9831 45.424V83.553" stroke="#11092B" stroke-width="4" stroke-linejoin="round"/>
<path d="M101.726 87.193C101.726 81.434 106.393 76.754 112.165 76.754C117.924 76.754 122.604 81.421 122.604 87.193V123.957" stroke="#11092B" stroke-width="4" stroke-miterlimit="10"/>
<path d="M80.9001 29.564L97.2021 45.866L124.268 18.8" stroke="#884BEF" stroke-width="4" stroke-miterlimit="10"/>
</svg>
