<svg width="101" height="104" viewBox="0 0 101 104" fill="none" xmlns="http://www.w3.org/2000/svg">
<g id="Group 10">
<path id="Vector" d="M94.8195 2.59998H6.24805C4.03891 2.59998 2.24805 4.39083 2.24805 6.59997V97.4C2.24805 99.6091 4.03891 101.4 6.24805 101.4H94.8195C97.0286 101.4 98.8195 99.6091 98.8195 97.4V6.59998C98.8195 4.39084 97.0286 2.59998 94.8195 2.59998Z" stroke="url(#paint0_linear_1101_1138)" stroke-width="4" stroke-miterlimit="10"/>
<path id="Vector 3" d="M2.24805 22.1H98.1841" stroke="url(#paint1_linear_1101_1138)" stroke-width="4"/>
<path id="shape" d="M72.2087 57.2031L72.1395 57.1983C71.0853 57.125 70.0794 56.7455 69.2348 56.1119M72.2087 57.2031L67.2775 53.4441C67.2774 53.4438 67.2773 53.4435 67.2772 53.4432C67.3017 53.5049 67.326 53.5671 67.3505 53.6302L67.354 53.6393L67.3576 53.6483C67.7466 54.6242 68.3925 55.4803 69.2348 56.1119M72.2087 57.2031H72.2781M72.2087 57.2031H72.2781M69.2348 56.1119L70.4349 54.512L69.2351 56.1122C69.235 56.1121 69.2349 56.112 69.2348 56.1119ZM72.2781 57.2031H73.632C73.6844 57.2031 73.7547 57.2241 73.8214 57.294L73.8227 57.2954M72.2781 57.2031L73.8227 57.2954M73.8227 57.2954C73.8923 57.3682 73.9474 57.4869 73.9474 57.63V64.5701C73.9474 64.7131 73.8923 64.8318 73.8227 64.9047L73.8213 64.9061M73.8227 57.2954L73.8213 64.9061M73.8213 64.9061C73.7548 64.9759 73.6845 64.997 73.632 64.997H72.2781H72.2087M73.8213 64.9061L72.2087 64.997M72.2087 64.997L72.1395 65.0018M72.2087 64.997L72.1395 65.0018M72.1395 65.0018C71.0844 65.0751 70.0792 65.4555 69.2357 66.0874L69.2356 66.0874M72.1395 65.0018L69.2356 66.0874M69.2356 66.0874C68.392 66.7195 67.7458 67.5768 67.3572 68.5531L67.3538 68.5616M69.2356 66.0874L67.3538 68.5616M67.3538 68.5616L67.3505 68.5701M67.3538 68.5616L67.3505 68.5701M67.3505 68.5701C67.3105 68.6733 67.2711 68.7731 67.2313 68.8713L67.2274 68.8812M67.3505 68.5701L67.2274 68.8812M67.2274 68.8812L67.2235 68.8911M67.2274 68.8812L67.2235 68.8911M67.2235 68.8911C66.8392 69.8693 66.7247 70.9358 66.8892 71.9735L66.8892 71.9735M67.2235 68.8911L66.8892 71.9735M66.8892 71.9735C67.0536 73.01 67.4914 73.9892 68.1664 74.7971L68.2087 74.8476M66.8892 71.9735L68.2087 74.8476M68.2087 74.8476L68.2542 74.8953M68.2087 74.8476L68.2542 74.8953M68.2542 74.8953L69.212 75.8991L69.2127 75.8998M68.2542 74.8953L69.2127 75.8998M69.2127 75.8998C69.2822 75.9726 69.3373 76.0913 69.3373 76.2344C69.3373 76.3769 69.2823 76.4957 69.2126 76.5686L69.212 76.5693M69.2127 75.8998L69.212 76.5693M69.212 76.5693L64.5293 81.4769L64.5286 81.4777M69.212 76.5693L64.5286 81.4777M64.5286 81.4777C64.462 81.5475 64.3917 81.5685 64.3393 81.5685C64.2863 81.5685 64.2161 81.5474 64.1496 81.4776L64.1489 81.4769M64.5286 81.4777L64.1489 81.4769M64.1489 81.4769L63.1912 80.4731L63.145 80.4248M64.1489 81.4769L63.145 80.4248M63.145 80.4248L63.0958 80.3797M63.145 80.4248L63.0958 80.3797M63.0958 80.3797C62.3191 79.6675 61.3586 79.1879 60.318 79.0067C59.2754 78.8251 58.2079 78.9538 57.239 79.3712L57.2278 79.376M63.0958 80.3797L57.2278 79.376M57.2278 79.376L57.2167 79.381M57.2278 79.376L57.2167 79.381M57.2167 79.381C57.1247 79.4219 57.0307 79.4627 56.9325 79.5044L56.9232 79.5084M57.2167 79.381L56.9232 79.5084M56.9232 79.5084L56.9138 79.5125M56.9232 79.5084L56.9138 79.5125M56.9138 79.5125C55.9474 79.9354 55.126 80.6262 54.533 81.4948L56.9138 79.5125ZM53.5252 84.4913L53.5292 84.4282C53.5955 83.3803 53.9393 82.3642 54.5328 81.4951L53.5252 84.4913ZM53.5252 84.4913V84.5545M53.5252 84.4913V84.5545M53.5252 84.5545V85.9735C53.5252 86.1159 53.4702 86.2347 53.4005 86.3077L53.3992 86.3091M53.5252 84.5545L53.3992 86.3091M53.3992 86.3091C53.3327 86.3788 53.2625 86.4 53.2095 86.4H46.5875C46.5345 86.4 46.4642 86.3788 46.3977 86.309L46.3964 86.3077M53.3992 86.3091L46.3964 86.3077M46.3964 86.3077C46.3268 86.2347 46.2718 86.116 46.2718 85.9735V84.5545V84.4913M46.3964 86.3077L46.2718 84.4913M46.2718 84.4913L46.2678 84.4282M46.2718 84.4913L46.2678 84.4282M46.2678 84.4282C46.2014 83.3795 45.8568 82.3638 45.2645 81.4956L45.2641 81.4949M46.2678 84.4282L45.2641 81.4949M45.2641 81.4949C44.6709 80.6262 43.8495 79.935 42.8824 79.5122L42.8734 79.5082M45.2641 81.4949L42.8734 79.5082M42.8734 79.5082L42.8644 79.5044M42.8734 79.5082L42.8644 79.5044M42.8644 79.5044C42.7641 79.4617 42.6715 79.4217 42.583 79.3822L42.5711 79.3768M42.8644 79.5044L42.5711 79.3768M42.5711 79.3768L42.5591 79.3717M42.5711 79.3768L42.5591 79.3717M42.5591 79.3717C41.5888 78.953 40.5208 78.8252 39.4791 79.0066M42.5591 79.3717L36.6516 80.4251M36.6516 80.4251L36.7005 80.3803C37.4776 79.6672 38.4391 79.1877 39.4791 79.0066M36.6516 80.4251L36.6058 80.4731M36.6516 80.4251L36.6058 80.4731M39.4791 79.0066L39.8222 80.977L39.479 79.0067C39.479 79.0067 39.4791 79.0066 39.4791 79.0066ZM36.6058 80.4731L35.6481 81.4769L35.6473 81.4777M36.6058 80.4731L35.6473 81.4777M35.6473 81.4777C35.5809 81.5473 35.5107 81.5685 35.4577 81.5685C35.4053 81.5685 35.335 81.5475 35.2684 81.4776L35.2677 81.4769M35.6473 81.4777L35.2677 81.4769M35.2677 81.4769L30.585 76.5693L30.5844 76.5687M35.2677 81.4769L30.5844 76.5687M30.5844 76.5687C30.5146 76.4957 30.4597 76.3769 30.4597 76.2344C30.4597 76.0914 30.5147 75.9727 30.5844 75.8998L30.585 75.8991M30.5844 76.5687L30.585 75.8991M30.585 75.8991L31.5428 74.8953L31.5886 74.8473M30.585 75.8991L31.5886 74.8473M31.5886 74.8473L31.6311 74.7964M31.5886 74.8473L31.6311 74.7964M31.6311 74.7964C32.3052 73.9889 32.7433 73.0107 32.9077 71.9735C33.0724 70.9352 32.957 69.8691 32.5739 68.8921L32.5698 68.8817M31.6311 74.7964L32.5698 68.8817M32.5698 68.8817L32.5656 68.8713M32.5698 68.8817L32.5656 68.8713M32.5656 68.8713C32.5264 68.7746 32.4872 68.6748 32.4465 68.5697L32.443 68.5607M32.5656 68.8713L32.443 68.5607M32.443 68.5607L32.4394 68.5517M32.443 68.5607L32.4394 68.5517M32.4394 68.5517C32.0503 67.5756 31.4041 66.7191 30.5609 66.0874C29.7166 65.454 28.711 65.0749 27.6575 65.0017L27.5883 64.9969M32.4394 68.5517L27.5883 64.9969M27.5883 64.9969H27.5188M27.5883 64.9969H27.5188M27.5188 64.9969H26.1649C26.1125 64.9969 26.0422 64.9759 25.9755 64.9059L25.9743 64.9046M27.5188 64.9969L25.9743 64.9046M25.9743 64.9046C25.9047 64.8318 25.8496 64.713 25.8496 64.57V57.6299C25.8496 57.4868 25.9047 57.3681 25.9743 57.2953L25.9756 57.2939M25.9743 64.9046L25.9756 57.2939M25.9756 57.2939C26.0422 57.224 26.1125 57.203 26.1649 57.203H27.5188H27.5882M25.9756 57.2939L27.5882 57.203M27.5882 57.203L27.6575 57.1982M27.5882 57.203L27.6575 57.1982M27.6575 57.1982C28.7125 57.1248 29.7178 56.7445 30.5613 56.1125L30.5621 56.1119M27.6575 57.1982L30.5621 56.1119M30.5621 56.1119C31.4045 55.4801 32.051 54.6238 32.4398 53.6469L32.4432 53.6384M30.5621 56.1119L32.4432 53.6384M32.4432 53.6384L32.4465 53.6298M32.4432 53.6384L32.4465 53.6298M32.4465 53.6298C32.4865 53.5266 32.5258 53.4268 32.5655 53.3288L32.5696 53.3189M32.4465 53.6298L32.5696 53.3189M32.5696 53.3189L32.5735 53.3089M32.5696 53.3189L32.5735 53.3089M32.5735 53.3089C32.9578 52.3306 33.0723 51.2641 32.9078 50.2265C32.7434 49.19 32.3055 48.2108 31.6305 47.4029L31.5883 47.3523M32.5735 53.3089L31.5883 47.3523M31.5883 47.3523L31.5428 47.3047M31.5883 47.3523L31.5428 47.3047M31.5428 47.3047L30.585 46.3009L30.5843 46.3002M31.5428 47.3047L30.5843 46.3002M30.5843 46.3002C30.5148 46.2274 30.4597 46.1087 30.4597 45.9655C30.4597 45.8231 30.5146 45.7043 30.5844 45.6313L30.585 45.6307M30.5843 46.3002L30.585 45.6307M30.585 45.6307L35.2677 40.7231L35.2684 40.7223M30.585 45.6307L35.2684 40.7223M35.2684 40.7223C35.335 40.6525 35.4053 40.6314 35.4577 40.6314C35.5107 40.6314 35.5809 40.6526 35.6474 40.7224L35.648 40.7231M35.2684 40.7223L35.648 40.7231M35.648 40.7231L36.6058 41.7268L36.6519 41.7751M35.648 40.7231L36.6519 41.7751M36.6519 41.7751L36.7011 41.8203M36.6519 41.7751L36.7011 41.8203M36.7011 41.8203C37.4779 42.5325 38.4385 43.0121 39.479 43.1933L36.7011 41.8203ZM42.5691 42.824L42.5579 42.8288C41.5891 43.2461 40.5217 43.3749 39.4791 43.1933L42.5691 42.824ZM42.5691 42.824L42.5802 42.819M42.5691 42.824L42.5802 42.819M42.5802 42.819C42.6723 42.778 42.7665 42.7372 42.865 42.6953L42.874 42.6914M42.5802 42.819L42.874 42.6914M42.874 42.6914L42.8831 42.6875M42.874 42.6914L42.8831 42.6875M42.8831 42.6875C43.8496 42.2646 44.6709 41.5738 45.264 40.7052C45.8576 39.836 46.2015 38.8197 46.2678 37.7717L46.2718 37.7087M42.8831 42.6875L46.2718 37.7087M46.2718 37.7087V37.6455M46.2718 37.7087V37.6455M46.2718 37.6455V36.2265C46.2718 36.084 46.3267 35.9653 46.3965 35.8923L46.3978 35.8909M46.2718 37.6455L46.3978 35.8909M46.3978 35.8909C46.4642 35.8212 46.5345 35.8 46.5875 35.8H53.2095C53.2625 35.8 53.3327 35.8212 53.3992 35.8909L53.4005 35.8923M46.3978 35.8909L53.4005 35.8923M53.4005 35.8923C53.4702 35.9652 53.5252 36.084 53.5252 36.2265V37.6455V37.7087M53.4005 35.8923L53.5252 37.7087M53.5252 37.7087L53.5292 37.7717M53.5252 37.7087L53.5292 37.7717M53.5292 37.7717C53.5955 38.8205 53.9402 39.8362 54.5324 40.7043L54.5329 40.705M53.5292 37.7717L54.5329 40.705M54.5329 40.705C55.1261 41.5737 55.9475 42.265 56.9146 42.6878L56.9233 42.6916M54.5329 40.705L56.9233 42.6916M56.9233 42.6916L56.9321 42.6953M56.9233 42.6916L56.9321 42.6953M56.9321 42.6953C57.0328 42.7382 57.1255 42.7782 57.214 42.8178L57.2265 42.8234M56.9321 42.6953L57.2265 42.8234M57.2265 42.8234L57.239 42.8288M57.2265 42.8234L57.239 42.8288M57.239 42.8288C58.2078 43.2461 59.2753 43.3749 60.3179 43.1933C61.3579 43.0122 62.3194 42.5328 63.0965 41.8197L63.1454 41.7748M57.239 42.8288L63.1454 41.7748M75.269 55.914C74.8349 55.4587 74.2458 55.2031 73.632 55.2031H72.2781L75.269 55.914ZM75.269 55.914C75.7035 56.3689 75.9474 56.9863 75.9474 57.63V64.5701C75.9474 65.2137 75.7035 65.8312 75.269 66.2861V55.914ZM63.1454 41.7748L63.1912 41.7268M63.1454 41.7748L63.1912 41.7268M63.1912 41.7268L64.1489 40.7231L64.1496 40.7223M63.1912 41.7268L64.1496 40.7223M64.1496 40.7223C64.216 40.6526 64.2863 40.6314 64.3393 40.6314C64.3915 40.6314 64.4622 40.6524 64.5296 40.723C64.5296 40.723 64.5297 40.723 64.5297 40.7231L69.2119 45.6306L69.2126 45.6313M64.1496 40.7223L69.2126 45.6313M69.2126 45.6313C69.2823 45.7043 69.3373 45.8231 69.3373 45.9655C69.3373 46.1086 69.2822 46.2273 69.2126 46.3002L69.212 46.3009M69.2126 45.6313L69.212 46.3009M69.212 46.3009L68.2542 47.3047L68.2084 47.3527M69.212 46.3009L68.2084 47.3527M68.2084 47.3527L68.1659 47.4036M68.2084 47.3527L68.1659 47.4036M68.1659 47.4036C67.4917 48.2111 67.0536 49.1894 66.8892 50.2266C66.7246 51.2649 66.84 52.331 67.223 53.3078L67.2273 53.3188M68.1659 47.4036L67.2273 53.3188M67.2273 53.3188L67.2318 53.3297M67.2273 53.3188L67.2318 53.3297M67.2318 53.3297C67.2457 53.3639 67.2599 53.3996 67.2771 53.4429L67.2318 53.3297Z" stroke="#884BEF" stroke-width="4"/>
</g>
<defs>
<linearGradient id="paint0_linear_1101_1138" x1="133.776" y1="-29.2137" x2="-25.7749" y2="-10.6314" gradientUnits="userSpaceOnUse">
<stop stop-color="#D4D3D9"/>
<stop offset="1" stop-color="#E5E4E8"/>
</linearGradient>
<linearGradient id="paint1_linear_1101_1138" x1="132.911" y1="21.778" x2="131.691" y2="35.7251" gradientUnits="userSpaceOnUse">
<stop stop-color="#D4D3D9"/>
<stop offset="1" stop-color="#E5E4E8"/>
</linearGradient>
</defs>
</svg>
