<svg width="199" height="207" viewBox="0 0 199 207" fill="none" xmlns="http://www.w3.org/2000/svg">
<g filter="url(#filter0_d_1101_287)">
<g filter="url(#filter1_i_1101_287)">
<rect x="83.5371" y="5.25488" width="74.1611" height="74.1611" rx="8" fill="url(#paint0_linear_1101_287)"/>
</g>
<g filter="url(#filter2_bi_1101_287)">
<path d="M127.19 65.7014C137.603 71.6119 137.603 86.3881 127.19 92.2986L64.4303 127.92C54.0168 133.83 41 126.442 41 114.621L41 43.3788C41 31.5578 54.0168 24.1697 64.4303 30.0802L127.19 65.7014Z" fill="#B19DFF" fill-opacity="0.7"/>
</g>
<path fill-rule="evenodd" clip-rule="evenodd" d="M78.6491 61.7157L94.2001 77.2668C95.1544 78.221 95.1544 79.7682 94.2001 80.7225L78.6491 96.2736C77.6948 97.2279 76.1476 97.2279 75.1933 96.2736C74.239 95.3193 74.239 93.7721 75.1933 92.8178L86.5728 81.4383H63.4436C62.094 81.4383 61 80.3442 61 78.9946C61 77.6451 62.094 76.551 63.4436 76.551H86.5728L75.1933 65.1715C74.239 64.2172 74.239 62.67 75.1933 61.7157C76.1476 60.7614 77.6948 60.7614 78.6491 61.7157Z" fill="url(#paint1_linear_1101_287)"/>
</g>
<defs>
<filter id="filter0_d_1101_287" x="-7" y="0" width="212" height="212" filterUnits="userSpaceOnUse" color-interpolation-filters="sRGB">
<feFlood flood-opacity="0" result="BackgroundImageFix"/>
<feColorMatrix in="SourceAlpha" type="matrix" values="0 0 0 0 0 0 0 0 0 0 0 0 0 0 0 0 0 0 127 0" result="hardAlpha"/>
<feOffset dy="36"/>
<feGaussianBlur stdDeviation="20.5"/>
<feComposite in2="hardAlpha" operator="out"/>
<feColorMatrix type="matrix" values="0 0 0 0 0.435294 0 0 0 0 0.294118 0 0 0 0 0.894118 0 0 0 0.17 0"/>
<feBlend mode="normal" in2="BackgroundImageFix" result="effect1_dropShadow_1101_287"/>
<feBlend mode="normal" in="SourceGraphic" in2="effect1_dropShadow_1101_287" result="shape"/>
</filter>
<filter id="filter1_i_1101_287" x="83.5371" y="5.25488" width="74.1611" height="74.1611" filterUnits="userSpaceOnUse" color-interpolation-filters="sRGB">
<feFlood flood-opacity="0" result="BackgroundImageFix"/>
<feBlend mode="normal" in="SourceGraphic" in2="BackgroundImageFix" result="shape"/>
<feColorMatrix in="SourceAlpha" type="matrix" values="0 0 0 0 0 0 0 0 0 0 0 0 0 0 0 0 0 0 127 0" result="hardAlpha"/>
<feOffset/>
<feGaussianBlur stdDeviation="5"/>
<feComposite in2="hardAlpha" operator="arithmetic" k2="-1" k3="1"/>
<feColorMatrix type="matrix" values="0 0 0 0 1 0 0 0 0 1 0 0 0 0 1 0 0 0 0.4 0"/>
<feBlend mode="normal" in2="shape" result="effect1_innerShadow_1101_287"/>
</filter>
<filter id="filter2_bi_1101_287" x="33.3" y="20.3" width="109.4" height="117.4" filterUnits="userSpaceOnUse" color-interpolation-filters="sRGB">
<feFlood flood-opacity="0" result="BackgroundImageFix"/>
<feGaussianBlur in="BackgroundImageFix" stdDeviation="3.85"/>
<feComposite in2="SourceAlpha" operator="in" result="effect1_backgroundBlur_1101_287"/>
<feBlend mode="normal" in="SourceGraphic" in2="effect1_backgroundBlur_1101_287" result="shape"/>
<feColorMatrix in="SourceAlpha" type="matrix" values="0 0 0 0 0 0 0 0 0 0 0 0 0 0 0 0 0 0 127 0" result="hardAlpha"/>
<feOffset/>
<feGaussianBlur stdDeviation="3.35"/>
<feComposite in2="hardAlpha" operator="arithmetic" k2="-1" k3="1"/>
<feColorMatrix type="matrix" values="0 0 0 0 1 0 0 0 0 1 0 0 0 0 1 0 0 0 0.3 0"/>
<feBlend mode="normal" in2="shape" result="effect2_innerShadow_1101_287"/>
</filter>
<linearGradient id="paint0_linear_1101_287" x1="83.5371" y1="5.25488" x2="83.5371" y2="79.416" gradientUnits="userSpaceOnUse">
<stop stop-color="#8460E9"/>
<stop offset="1" stop-color="#541EAC"/>
</linearGradient>
<linearGradient id="paint1_linear_1101_287" x1="63.1197" y1="58.6993" x2="101.398" y2="94.6726" gradientUnits="userSpaceOnUse">
<stop stop-color="white"/>
<stop offset="1" stop-color="#C3B6F8"/>
</linearGradient>
</defs>
</svg>
