<svg width="385" height="45" viewBox="0 0 385 45" fill="none" xmlns="http://www.w3.org/2000/svg">
<path d="M103.714 20.8058C102.182 19.8575 100.438 19.3846 98.4891 19.3846C96.7323 19.3846 95.3041 19.7336 94.2045 20.429C93.1024 21.1269 92.2176 21.9336 91.5503 22.8541V10.5188H86.199V40.6312H90.9639L91.5503 37.7864C92.2758 38.8459 93.2237 39.6678 94.3941 40.2545C95.5644 40.8411 96.9294 41.1319 98.4916 41.1319C100.443 41.1319 102.185 40.6641 103.717 39.731C105.248 38.7979 106.462 37.5133 107.354 35.8822C108.246 34.2512 108.691 32.39 108.691 30.2987C108.691 28.2075 108.244 26.3412 107.354 24.695C106.462 23.0513 105.248 21.7541 103.717 20.8058H103.714ZM101.583 34.7317C100.468 35.8747 99.0604 36.4462 97.3617 36.4462C95.663 36.4462 94.2196 35.8671 93.1175 34.7114C92.0154 33.5558 91.4669 32.0714 91.4669 30.2583C91.4669 28.4452 92.0179 26.9608 93.1175 25.8051C94.2171 24.6495 95.6327 24.0704 97.3617 24.0704C99.0907 24.0704 100.468 24.6571 101.583 25.8279C102.698 26.9987 103.256 28.4907 103.256 30.3038C103.256 32.1169 102.698 33.5937 101.583 34.7367V34.7317Z" fill="#11092B"/>
<path d="M117.063 19.8853H111.712V40.6287H117.063V19.8853Z" fill="#11092B"/>
<path d="M134.222 29.1506C133.009 28.746 131.679 28.3768 130.231 28.043C128.893 27.737 127.819 27.4007 127.01 27.0391C126.201 26.6775 125.797 26.1894 125.797 25.5749C125.797 24.9604 126.07 24.5027 126.613 24.1108C127.157 23.7213 127.93 23.5241 128.934 23.5241C130.941 23.5241 132.096 24.2903 132.404 25.8253H137.463C137.184 23.8174 136.312 22.242 134.849 21.099C133.385 19.956 131.426 19.3845 128.974 19.3845C126.325 19.3845 124.27 20.0117 122.809 21.2659C121.345 22.5202 120.615 24.0678 120.615 25.9087C120.615 26.9126 120.852 27.7572 121.325 28.44C121.798 29.1228 122.42 29.6816 123.186 30.114C123.952 30.5465 124.796 30.903 125.716 31.1812C126.636 31.4593 127.541 31.697 128.433 31.8918C129.826 32.1977 130.913 32.5113 131.694 32.8325C132.475 33.1536 132.865 33.7605 132.865 34.6506C132.865 35.2651 132.592 35.8088 132.048 36.2817C131.505 36.7571 130.648 36.9923 129.477 36.9923C128.307 36.9923 127.351 36.7065 126.613 36.135C125.875 35.5635 125.423 34.8732 125.256 34.064H119.862C120.028 35.4598 120.531 36.6863 121.366 37.7433C122.202 38.8029 123.317 39.6323 124.71 40.2316C126.103 40.8309 127.72 41.1318 129.558 41.1318C131.396 41.1318 132.887 40.8385 134.199 40.2544C135.509 39.6677 136.512 38.861 137.21 37.8293C137.905 36.7976 138.241 35.6419 138.213 34.3573C138.213 32.8805 137.852 31.7426 137.126 30.9485C136.401 30.1545 135.433 29.5552 134.222 29.1506Z" fill="#11092B"/>
<path d="M154.497 29.1506C153.284 28.746 151.954 28.3768 150.506 28.043C149.169 27.737 148.094 27.4007 147.286 27.0391C146.477 26.6775 146.072 26.1894 146.072 25.5749C146.072 24.9604 146.345 24.5027 146.889 24.1108C147.432 23.7213 148.206 23.5241 149.209 23.5241C151.216 23.5241 152.371 24.2903 152.68 25.8253H157.738C157.46 23.8174 156.588 22.242 155.124 21.099C153.661 19.956 151.702 19.3845 149.25 19.3845C146.601 19.3845 144.545 20.0117 143.084 21.2659C141.621 22.5202 140.89 24.0678 140.89 25.9087C140.89 26.9126 141.128 27.7572 141.601 28.44C142.073 29.1228 142.695 29.6816 143.461 30.114C144.227 30.5465 145.071 30.903 145.991 31.1812C146.911 31.4593 147.816 31.697 148.709 31.8918C150.101 32.1977 151.188 32.5113 151.97 32.8325C152.751 33.1536 153.14 33.7605 153.14 34.6506C153.14 35.2651 152.867 35.8088 152.323 36.2817C151.78 36.7571 150.923 36.9923 149.753 36.9923C148.582 36.9923 147.627 36.7065 146.889 36.135C146.151 35.5635 145.698 34.8732 145.531 34.064H140.137C140.304 35.4598 140.807 36.6863 141.641 37.7433C142.478 38.8029 143.592 39.6323 144.985 40.2316C146.378 40.8309 147.996 41.1318 149.834 41.1318C151.671 41.1318 153.163 40.8385 154.475 40.2544C155.784 39.6677 156.787 38.861 157.485 37.8293C158.18 36.7976 158.516 35.6419 158.489 34.3573C158.489 32.8805 158.127 31.7426 157.402 30.9485C156.676 30.1545 155.708 29.5552 154.497 29.1506Z" fill="#11092B"/>
<path d="M72.4882 19.3542C66.4771 19.3542 61.5884 24.2449 61.5884 30.2583C61.5884 36.2716 66.4771 41.1623 72.4882 41.1623C78.4993 41.1623 83.388 36.2716 83.388 30.2583C83.388 24.2449 78.4993 19.3542 72.4882 19.3542ZM72.4882 36.1224C69.2577 36.1224 66.6288 33.4925 66.6288 30.2608C66.6288 27.029 69.2577 24.3966 72.4882 24.3966C75.7187 24.3966 78.3501 27.0265 78.3501 30.2608C78.3501 33.4951 75.7212 36.1224 72.4882 36.1224Z" fill="#11092B"/>
<path d="M48.4313 19.3542C42.4202 19.3542 37.5315 24.2449 37.5315 30.2583C37.5315 36.2716 42.4202 41.1623 48.4313 41.1623C54.4424 41.1623 59.3311 36.2716 59.3311 30.2583C59.3311 24.2449 54.4424 19.3542 48.4313 19.3542ZM48.4313 36.1224C45.2008 36.1224 42.5694 33.4925 42.5694 30.2608C42.5694 27.029 45.1983 24.3966 48.4313 24.3966C51.6643 24.3966 54.2907 27.0265 54.2907 30.2608C54.2907 33.4951 51.6618 36.1224 48.4313 36.1224Z" fill="#11092B"/>
<path d="M114.386 10.5188C112.71 10.5188 111.353 11.8767 111.353 13.5533C111.353 15.2299 112.71 16.5878 114.386 16.5878C116.062 16.5878 117.42 15.2299 117.42 13.5533C117.42 11.8767 116.062 10.5188 114.386 10.5188Z" fill="#11092B"/>
<path d="M36.4143 40.6388L31.8643 36.087C34.0609 33.1536 35.3627 29.5122 35.3627 25.575C35.3602 15.8822 27.4786 7.99756 17.7921 7.99756C8.1056 7.99756 0.221436 15.8822 0.221436 25.575C0.221436 35.2677 8.10308 43.1524 17.7921 43.1524C21.7304 43.1524 25.3679 41.85 28.3001 39.6525L32.8501 44.2043L36.4143 40.6388ZM5.26184 25.575C5.26184 18.6639 10.8836 13.0399 17.7921 13.0399C24.7005 13.0399 30.3223 18.6639 30.3223 25.575C30.3223 32.486 24.7005 38.11 17.7921 38.11C10.8836 38.11 5.26184 32.486 5.26184 25.575Z" fill="#11092B"/>
<path d="M17.7922 17.3691C13.27 17.3691 9.59204 21.0485 9.59204 25.5724C9.59204 27.8331 10.5122 29.8865 11.996 31.3709L15.5576 27.8079C14.9863 27.2364 14.6299 26.4449 14.6299 25.5724C14.6299 23.8276 16.048 22.409 17.7922 22.409C19.5364 22.409 20.9544 23.8276 20.9544 25.5724C20.9544 26.4449 20.6006 27.2338 20.0267 27.8079L23.5884 31.3709C25.0722 29.8865 25.9923 27.8331 25.9923 25.5724C25.9923 21.0485 22.3144 17.3691 17.7922 17.3691Z" fill="#884BEF"/>
</svg>
