<svg width="127" height="128" viewBox="0 0 127 128" fill="none" xmlns="http://www.w3.org/2000/svg">
<g id="Group 366">
<path id="Vector" d="M118.917 31.6491L67.3546 20.01C63.3691 19.1104 59.4089 21.612 58.5093 25.5975L40.5213 105.287C39.6216 109.272 42.1232 113.232 46.1087 114.132L97.6716 125.771C101.657 126.671 105.617 124.169 106.517 120.184L124.505 40.4944C125.404 36.5089 122.903 32.5488 118.917 31.6491Z" stroke="#11092B" stroke-width="4" stroke-miterlimit="10"/>
<path id="Vector_2" d="M40.5343 107.863L30.1882 26.8301C29.6647 22.7799 32.5302 19.074 36.5942 18.5505L89.0273 11.8552C93.0776 11.3317 96.7834 14.1971 97.3069 18.2612L98.4228 27.023" stroke="#11092B" stroke-width="4" stroke-miterlimit="10"/>
<path id="Vector_3" d="M41.1679 110.232L3.72358 37.6169C1.84998 33.9799 3.28273 29.5163 6.90593 27.6427L53.8836 3.42377C57.5205 1.55018 61.9841 2.98293 63.8577 6.60613L67.9493 14.5414" stroke="#11092B" stroke-width="4" stroke-miterlimit="10"/>
<path id="Vector_4" d="M86.3684 56.0498L71.3521 70.3497L78.6949 89.747L93.6974 75.4332L86.3684 56.0498Z" stroke="#884BEF" stroke-width="4" stroke-miterlimit="10"/>
</g>
</svg>
