<svg width="119" height="119" viewBox="0 0 119 119" fill="none" xmlns="http://www.w3.org/2000/svg">
<g id="Layer_1">
<path id="Vector" d="M27.4089 63.1081V90.7721C27.4089 102.992 37.3149 112.898 49.5349 112.898C61.7549 112.898 71.6609 102.992 71.6609 90.7721V55.2561C71.6609 47.0011 78.3429 40.3191 86.5979 40.3191C94.8529 40.3191 101.535 47.0011 101.535 55.2561V80.7101" stroke="#11092B" stroke-width="4" stroke-miterlimit="10"/>
<path id="Vector_2" d="M101.535 103.057C107.71 103.057 112.715 98.0516 112.715 91.877C112.715 85.7025 107.71 80.697 101.535 80.697C95.3604 80.697 90.355 85.7025 90.355 91.877C90.355 98.0516 95.3604 103.057 101.535 103.057Z" stroke="#11092B" stroke-width="4" stroke-miterlimit="10"/>
<path id="Vector_3" d="M19.8301 6.3501C12.251 6.3501 6.05005 12.5511 6.05005 20.1301V49.3411C6.05005 56.9201 12.251 63.1211 19.8301 63.1211H34.9881C42.5671 63.1211 48.7681 56.9201 48.7681 49.3411V20.1301C48.7681 12.5511 42.5671 6.3501 34.9881 6.3501" stroke="#884BEF" stroke-width="4" stroke-miterlimit="10"/>
</g>
</svg>
