<svg width="119" height="114" viewBox="0 0 119 114" fill="none" xmlns="http://www.w3.org/2000/svg">
<g id="Group 359">
<path id="Vector" d="M59.5049 60.8074V103.654C59.5049 108.211 55.8164 111.9 51.2586 111.9C46.7007 111.9 43.0122 108.211 43.0122 103.654V98.7977" stroke="#11092B" stroke-width="4" stroke-miterlimit="10"/>
<path id="Vector_2" d="M59.5049 10.0877V0.711182" stroke="#11092B" stroke-width="4" stroke-miterlimit="10"/>
<path id="Vector_3" d="M116.795 67.3649C112.386 63.0679 105.059 59.5284 97.694 59.5532C90.3418 59.5284 83.0021 63.0679 78.5933 67.3649C74.1845 63.0679 66.8571 59.5284 59.4926 59.5532C52.1404 59.5284 44.8007 63.0679 40.3919 67.3649C35.983 63.0679 28.6557 59.5284 21.2911 59.5532C13.939 59.5284 6.59924 63.0679 2.19043 67.3649C2.19043 35.7208 27.8361 10.0752 59.4802 10.0752C91.1242 10.0752 116.77 35.7208 116.77 67.3649H116.795Z" stroke="#884BEF" stroke-width="4" stroke-linejoin="bevel"/>
</g>
</svg>
