<svg width="128" height="130" viewBox="0 0 128 130" fill="none" xmlns="http://www.w3.org/2000/svg">
<g filter="url(#filter0_i_1101_950)">
<rect x="17" y="5" width="49" height="49" rx="8" fill="url(#paint0_linear_1101_950)"/>
</g>
<g filter="url(#filter1_i_1101_950)">
<rect x="74" y="5" width="49" height="49" rx="8" fill="url(#paint1_linear_1101_950)"/>
</g>
<g filter="url(#filter2_i_1101_950)">
<rect x="74" y="62" width="49" height="49" rx="8" fill="url(#paint2_linear_1101_950)"/>
</g>
<g filter="url(#filter3_bi_1101_950)">
<path d="M5 48C5 43.5817 8.58172 40 13 40H82C86.4183 40 90 43.5817 90 48V117C90 121.418 86.4183 125 82 125H13C8.58172 125 5 121.418 5 117V48Z" fill="#362969" fill-opacity="0.47"/>
<path d="M5.5 48C5.5 43.8579 8.85786 40.5 13 40.5H82C86.1421 40.5 89.5 43.8579 89.5 48V117C89.5 121.142 86.1421 124.5 82 124.5H13C8.85786 124.5 5.5 121.142 5.5 117V48Z" stroke="white" stroke-opacity="0.14"/>
</g>
<path fill-rule="evenodd" clip-rule="evenodd" d="M35.9859 70.0263L57.9783 70.0263C59.3279 70.0263 60.422 71.1204 60.4219 72.4699L60.4219 94.4624C60.4219 95.812 59.3279 96.906 57.9783 96.906C56.6288 96.906 55.5347 95.812 55.5347 94.4624L55.5347 78.3693L39.1799 94.7241C38.2256 95.6784 36.6784 95.6784 35.7241 94.7241C34.7698 93.7698 34.7698 92.2226 35.7241 91.2683L52.0789 74.9135L35.9859 74.9135C34.6363 74.9135 33.5423 73.8195 33.5423 72.4699C33.5423 71.1204 34.6363 70.0263 35.9859 70.0263Z" fill="url(#paint3_linear_1101_950)"/>
<defs>
<filter id="filter0_i_1101_950" x="17" y="5" width="49" height="49" filterUnits="userSpaceOnUse" color-interpolation-filters="sRGB">
<feFlood flood-opacity="0" result="BackgroundImageFix"/>
<feBlend mode="normal" in="SourceGraphic" in2="BackgroundImageFix" result="shape"/>
<feColorMatrix in="SourceAlpha" type="matrix" values="0 0 0 0 0 0 0 0 0 0 0 0 0 0 0 0 0 0 127 0" result="hardAlpha"/>
<feOffset/>
<feGaussianBlur stdDeviation="5"/>
<feComposite in2="hardAlpha" operator="arithmetic" k2="-1" k3="1"/>
<feColorMatrix type="matrix" values="0 0 0 0 1 0 0 0 0 1 0 0 0 0 1 0 0 0 0.4 0"/>
<feBlend mode="normal" in2="shape" result="effect1_innerShadow_1101_950"/>
</filter>
<filter id="filter1_i_1101_950" x="74" y="5" width="49" height="49" filterUnits="userSpaceOnUse" color-interpolation-filters="sRGB">
<feFlood flood-opacity="0" result="BackgroundImageFix"/>
<feBlend mode="normal" in="SourceGraphic" in2="BackgroundImageFix" result="shape"/>
<feColorMatrix in="SourceAlpha" type="matrix" values="0 0 0 0 0 0 0 0 0 0 0 0 0 0 0 0 0 0 127 0" result="hardAlpha"/>
<feOffset/>
<feGaussianBlur stdDeviation="5"/>
<feComposite in2="hardAlpha" operator="arithmetic" k2="-1" k3="1"/>
<feColorMatrix type="matrix" values="0 0 0 0 1 0 0 0 0 1 0 0 0 0 1 0 0 0 0.4 0"/>
<feBlend mode="normal" in2="shape" result="effect1_innerShadow_1101_950"/>
</filter>
<filter id="filter2_i_1101_950" x="74" y="62" width="49" height="49" filterUnits="userSpaceOnUse" color-interpolation-filters="sRGB">
<feFlood flood-opacity="0" result="BackgroundImageFix"/>
<feBlend mode="normal" in="SourceGraphic" in2="BackgroundImageFix" result="shape"/>
<feColorMatrix in="SourceAlpha" type="matrix" values="0 0 0 0 0 0 0 0 0 0 0 0 0 0 0 0 0 0 127 0" result="hardAlpha"/>
<feOffset/>
<feGaussianBlur stdDeviation="5"/>
<feComposite in2="hardAlpha" operator="arithmetic" k2="-1" k3="1"/>
<feColorMatrix type="matrix" values="0 0 0 0 1 0 0 0 0 1 0 0 0 0 1 0 0 0 0.4 0"/>
<feBlend mode="normal" in2="shape" result="effect1_innerShadow_1101_950"/>
</filter>
<filter id="filter3_bi_1101_950" x="-2.7" y="32.3" width="100.4" height="100.4" filterUnits="userSpaceOnUse" color-interpolation-filters="sRGB">
<feFlood flood-opacity="0" result="BackgroundImageFix"/>
<feGaussianBlur in="BackgroundImageFix" stdDeviation="3.85"/>
<feComposite in2="SourceAlpha" operator="in" result="effect1_backgroundBlur_1101_950"/>
<feBlend mode="normal" in="SourceGraphic" in2="effect1_backgroundBlur_1101_950" result="shape"/>
<feColorMatrix in="SourceAlpha" type="matrix" values="0 0 0 0 0 0 0 0 0 0 0 0 0 0 0 0 0 0 127 0" result="hardAlpha"/>
<feOffset/>
<feGaussianBlur stdDeviation="6.85"/>
<feComposite in2="hardAlpha" operator="arithmetic" k2="-1" k3="1"/>
<feColorMatrix type="matrix" values="0 0 0 0 0.464687 0 0 0 0 0.242188 0 0 0 0 0.9375 0 0 0 0.3 0"/>
<feBlend mode="normal" in2="shape" result="effect2_innerShadow_1101_950"/>
</filter>
<linearGradient id="paint0_linear_1101_950" x1="17" y1="5" x2="17" y2="54" gradientUnits="userSpaceOnUse">
<stop stop-color="#8460E9"/>
<stop offset="1" stop-color="#541EAC"/>
</linearGradient>
<linearGradient id="paint1_linear_1101_950" x1="74" y1="5" x2="74" y2="54" gradientUnits="userSpaceOnUse">
<stop stop-color="#8460E9"/>
<stop offset="1" stop-color="#541EAC"/>
</linearGradient>
<linearGradient id="paint2_linear_1101_950" x1="74" y1="62" x2="74" y2="111" gradientUnits="userSpaceOnUse">
<stop stop-color="#8460E9"/>
<stop offset="1" stop-color="#541EAC"/>
</linearGradient>
<linearGradient id="paint3_linear_1101_950" x1="22.8721" y1="78.8743" x2="75.3757" y2="77.2445" gradientUnits="userSpaceOnUse">
<stop stop-color="white"/>
<stop offset="1" stop-color="#C3B6F8"/>
</linearGradient>
</defs>
</svg>
