<svg width="115" height="117" viewBox="0 0 115 117" fill="none" xmlns="http://www.w3.org/2000/svg">
<g id="Group 362">
<path id="Vector" d="M45.6557 2.09998C30.3807 9.87398 19.1357 24.798 14.5077 42.4C13.1427 47.587 6.82468 62.901 2.84668 72.339C1.28668 76.044 4.00368 80.126 8.02068 80.126H16.7307V104.189C16.7307 109.714 21.2027 114.186 26.7277 114.186H39.2727C48.0997 114.186 56.5497 110.676 62.7897 104.449" stroke="#11092B" stroke-width="4" stroke-miterlimit="10"/>
<g id="Group">
<path id="Vector_2" d="M70.1741 18.6489L48.0611 56.9599C43.9661 64.0449 49.0881 72.9109 57.2651 72.9109H101.504C109.681 72.9109 114.803 64.0579 110.708 56.9599L88.5951 18.6489C84.5001 11.5639 74.2691 11.5639 70.1871 18.6489H70.1741Z" stroke="#884BEF" stroke-width="4" stroke-miterlimit="10"/>
<path id="Vector_3" d="M79.3779 29.3479V52.9039" stroke="#884BEF" stroke-width="4" stroke-miterlimit="10"/>
<path id="Vector_4" d="M79.3779 58.1429V63.3169" stroke="#884BEF" stroke-width="4" stroke-miterlimit="10"/>
</g>
</g>
</svg>
