<svg width="195" height="189" viewBox="0 0 195 189" fill="none" xmlns="http://www.w3.org/2000/svg">
<g filter="url(#filter0_d_1101_2728)">
<g filter="url(#filter1_i_1101_2728)">
<circle cx="112.489" cy="46.4894" r="41.4894" fill="url(#paint0_linear_1101_2728)"/>
</g>
<g filter="url(#filter2_bi_1101_2728)">
<path d="M41 30C41 25.5817 44.5817 22 49 22H123C127.418 22 131 25.5817 131 30V104C131 108.418 127.418 112 123 112H49C44.5817 112 41 108.418 41 104V30Z" fill="#B19DFF" fill-opacity="0.7"/>
</g>
<path fill-rule="evenodd" clip-rule="evenodd" d="M69.25 64.25C70.4926 64.25 71.5 65.2574 71.5 66.5L71.5 91C71.5 92.2426 70.4926 93.25 69.25 93.25C68.0074 93.25 67 92.2426 67 91L67 66.5C67 65.2574 68.0074 64.25 69.25 64.25Z" fill="url(#paint1_linear_1101_2728)"/>
<path fill-rule="evenodd" clip-rule="evenodd" d="M83.5 91L83.5 55.75C83.5 54.5074 84.5074 53.5 85.75 53.5C86.9926 53.5 88 54.5074 88 55.75L88 91C88 92.2426 86.9926 93.25 85.75 93.25C84.5074 93.25 83.5 92.2426 83.5 91Z" fill="url(#paint2_linear_1101_2728)"/>
<path fill-rule="evenodd" clip-rule="evenodd" d="M104.5 91.25L104.5 43.25C104.5 42.0074 103.493 41 102.25 41C101.007 41 100 42.0074 100 43.25L100 91.25C100 92.4926 101.007 93.5 102.25 93.5C103.493 93.5 104.5 92.4926 104.5 91.25Z" fill="url(#paint3_linear_1101_2728)"/>
</g>
<defs>
<filter id="filter0_d_1101_2728" x="-9" y="0" width="212" height="212" filterUnits="userSpaceOnUse" color-interpolation-filters="sRGB">
<feFlood flood-opacity="0" result="BackgroundImageFix"/>
<feColorMatrix in="SourceAlpha" type="matrix" values="0 0 0 0 0 0 0 0 0 0 0 0 0 0 0 0 0 0 127 0" result="hardAlpha"/>
<feOffset dy="36"/>
<feGaussianBlur stdDeviation="20.5"/>
<feComposite in2="hardAlpha" operator="out"/>
<feColorMatrix type="matrix" values="0 0 0 0 0.435294 0 0 0 0 0.294118 0 0 0 0 0.894118 0 0 0 0.17 0"/>
<feBlend mode="normal" in2="BackgroundImageFix" result="effect1_dropShadow_1101_2728"/>
<feBlend mode="normal" in="SourceGraphic" in2="effect1_dropShadow_1101_2728" result="shape"/>
</filter>
<filter id="filter1_i_1101_2728" x="71" y="5" width="82.9787" height="82.9787" filterUnits="userSpaceOnUse" color-interpolation-filters="sRGB">
<feFlood flood-opacity="0" result="BackgroundImageFix"/>
<feBlend mode="normal" in="SourceGraphic" in2="BackgroundImageFix" result="shape"/>
<feColorMatrix in="SourceAlpha" type="matrix" values="0 0 0 0 0 0 0 0 0 0 0 0 0 0 0 0 0 0 127 0" result="hardAlpha"/>
<feOffset/>
<feGaussianBlur stdDeviation="5"/>
<feComposite in2="hardAlpha" operator="arithmetic" k2="-1" k3="1"/>
<feColorMatrix type="matrix" values="0 0 0 0 1 0 0 0 0 1 0 0 0 0 1 0 0 0 0.4 0"/>
<feBlend mode="normal" in2="shape" result="effect1_innerShadow_1101_2728"/>
</filter>
<filter id="filter2_bi_1101_2728" x="33.3" y="14.3" width="105.4" height="105.4" filterUnits="userSpaceOnUse" color-interpolation-filters="sRGB">
<feFlood flood-opacity="0" result="BackgroundImageFix"/>
<feGaussianBlur in="BackgroundImageFix" stdDeviation="3.85"/>
<feComposite in2="SourceAlpha" operator="in" result="effect1_backgroundBlur_1101_2728"/>
<feBlend mode="normal" in="SourceGraphic" in2="effect1_backgroundBlur_1101_2728" result="shape"/>
<feColorMatrix in="SourceAlpha" type="matrix" values="0 0 0 0 0 0 0 0 0 0 0 0 0 0 0 0 0 0 127 0" result="hardAlpha"/>
<feOffset/>
<feGaussianBlur stdDeviation="3.35"/>
<feComposite in2="hardAlpha" operator="arithmetic" k2="-1" k3="1"/>
<feColorMatrix type="matrix" values="0 0 0 0 1 0 0 0 0 1 0 0 0 0 1 0 0 0 0.3 0"/>
<feBlend mode="normal" in2="shape" result="effect2_innerShadow_1101_2728"/>
</filter>
<linearGradient id="paint0_linear_1101_2728" x1="71" y1="5" x2="71" y2="87.9787" gradientUnits="userSpaceOnUse">
<stop stop-color="#8460E9"/>
<stop offset="1" stop-color="#541EAC"/>
</linearGradient>
<linearGradient id="paint1_linear_1101_2728" x1="71.7877" y1="66.0625" x2="62.4235" y2="67.5196" gradientUnits="userSpaceOnUse">
<stop stop-color="white"/>
<stop offset="1" stop-color="#C3B6F8"/>
</linearGradient>
<linearGradient id="paint2_linear_1101_2728" x1="88.2877" y1="55.9844" x2="78.8188" y2="57.0593" gradientUnits="userSpaceOnUse">
<stop stop-color="white"/>
<stop offset="1" stop-color="#C3B6F8"/>
</linearGradient>
<linearGradient id="paint3_linear_1101_2728" x1="99.7123" y1="44.2812" x2="109.233" y2="45.0996" gradientUnits="userSpaceOnUse">
<stop stop-color="white"/>
<stop offset="1" stop-color="#C3B6F8"/>
</linearGradient>
</defs>
</svg>
