<svg width="126" height="84" viewBox="0 0 126 84" fill="none" xmlns="http://www.w3.org/2000/svg">
<path d="M49 2.8H36.8108C35.756 2.8 34.7439 3.21662 33.9948 3.95917L23.0773 14.7811H2.19995V56.1703H26.3738L48.0351 77.6419C51.4145 80.9918 56.6863 81.4964 60.6398 78.8485L89.4208 59.5721C92.0462 57.8137 92.4025 54.0912 90.1584 51.8667L70.3261 32.2081" stroke="#11092B" stroke-width="4"/>
<path d="M98.957 56.1H123.1V14.7653H102.249L91.3472 3.95912C90.5981 3.2166 89.586 2.8 88.5313 2.8H62.7427L44.6889 20.6951C41.3347 24.0198 41.3347 29.4414 44.6889 32.7661V32.7661C48.0014 36.0495 53.3412 36.0495 56.6537 32.7661L70.4245 19.1163" stroke="#884BEF" stroke-width="4"/>
</svg>
