<svg width="213" height="193" viewBox="0 0 213 193" fill="none" xmlns="http://www.w3.org/2000/svg">
<g filter="url(#filter0_d_58_355)">
<g filter="url(#filter1_i_58_355)">
<circle cx="130.433" cy="46.7234" r="41.4894" fill="url(#paint0_linear_58_355)"/>
</g>
<g filter="url(#filter2_bi_58_355)">
<path fill-rule="evenodd" clip-rule="evenodd" d="M141.587 50.2858H144.399C145.674 50.2858 146.898 50.7907 147.799 51.6903C148.702 52.5891 149.208 53.8089 149.208 55.0806V68.7919C149.208 70.0636 148.702 71.2834 147.799 72.1822C146.898 73.0818 145.674 73.5868 144.399 73.5868H141.587C140.208 73.6779 138.882 74.1512 137.758 74.9521C136.635 75.753 135.757 76.8515 135.226 78.1224C135.137 78.3406 135.047 78.5571 134.955 78.7736C134.429 80.0469 134.27 81.4414 134.497 82.8C134.723 84.1585 135.325 85.4277 136.235 86.4636L138.224 88.4468C139.126 89.3455 139.633 90.5654 139.633 91.837C139.633 93.1078 139.126 94.3277 138.224 95.2264L128.498 104.922C127.596 105.822 126.373 106.327 125.098 106.327C123.822 106.327 122.599 105.822 121.697 104.922L119.708 102.939C118.668 102.032 117.396 101.433 116.033 101.207C114.67 100.981 113.271 101.14 111.994 101.663C111.777 101.755 111.559 101.845 111.341 101.933C110.065 102.464 108.964 103.339 108.16 104.458C107.356 105.579 106.882 106.9 106.791 108.275V111.078C106.791 112.349 106.284 113.569 105.382 114.468C104.48 115.367 103.257 115.872 101.981 115.872H88.227C86.9514 115.872 85.7278 115.367 84.8262 114.468C83.9238 113.569 83.4172 112.349 83.4172 111.078V108.275C83.3258 106.9 82.8512 105.579 82.0477 104.458C81.2434 103.338 80.1424 102.463 78.8676 101.933C78.6487 101.845 78.4306 101.755 78.2142 101.663C76.937 101.139 75.5382 100.981 74.1753 101.207C72.8126 101.433 71.5394 102.032 70.5003 102.939L68.511 104.922C67.6095 105.822 66.3858 106.327 65.1102 106.327C63.8354 106.327 62.6118 105.822 61.7102 104.922L51.9841 95.2264C51.0817 94.3277 50.5752 93.1078 50.5752 91.837C50.5752 90.5653 51.0817 89.3455 51.9841 88.4468L53.9734 86.4636C54.8834 85.4268 55.4847 84.1586 55.7112 82.8C55.9376 81.4416 55.7783 80.047 55.2533 78.7736V78.7728C55.161 78.5563 55.0713 78.3397 54.9824 78.1215C54.4498 76.8506 53.5725 75.7529 52.4487 74.9519C51.3258 74.1501 49.9998 73.6777 48.6211 73.5866H45.8089C44.5341 73.5866 43.3105 73.0816 42.4089 72.182C41.5066 71.2833 41 70.0634 41 68.7918V55.0804C41 53.8087 41.5066 52.5889 42.4089 51.6901C43.3105 50.7905 44.5342 50.2855 45.8089 50.2855H48.6211C49.9999 50.1944 51.3257 49.7212 52.4496 48.9202C53.5734 48.1185 54.4507 47.0208 54.9824 45.75C55.0713 45.5318 55.161 45.3153 55.2533 45.0987C55.7791 43.8254 55.9376 42.431 55.7112 41.0723C55.4847 39.7139 54.8834 38.4446 53.9734 37.4087L51.9841 35.4256C51.0817 34.5269 50.5752 33.307 50.5752 32.0353C50.5752 30.7645 51.0817 29.5446 51.9841 28.6459L61.7102 18.95C62.6117 18.0504 63.8354 17.5454 65.1102 17.5454C66.3858 17.5454 67.6094 18.0504 68.511 18.95L70.5003 20.9332C71.5403 21.8403 72.8125 22.4398 74.1753 22.6655C75.538 22.8912 76.9369 22.7324 78.2142 22.209C78.4315 22.117 78.6487 22.0276 78.8676 21.9389C80.1431 21.408 81.2442 20.5335 82.0477 19.414C82.852 18.2938 83.3258 16.9719 83.4172 15.5974V12.794C83.4172 11.5232 83.9238 10.3034 84.8262 9.40461C85.7277 8.50498 86.9514 8 88.227 8H101.981C103.257 8 104.48 8.50498 105.382 9.40461C106.284 10.3033 106.791 11.5232 106.791 12.794V15.5974C106.882 16.9719 107.357 18.2937 108.16 19.414C108.965 20.5344 110.066 21.4089 111.341 21.9389C111.559 22.0276 111.777 22.117 111.994 22.209C113.271 22.7324 114.67 22.8912 116.033 22.6655C117.395 22.4398 118.669 21.8403 119.708 20.9332L121.697 18.95C122.599 18.0504 123.822 17.5454 125.098 17.5454C126.373 17.5454 127.596 18.0504 128.499 18.95L138.224 28.6459C139.126 29.5446 139.633 30.7645 139.633 32.0353C139.633 33.307 139.126 34.5268 138.224 35.4256L136.235 37.4087C135.325 38.4455 134.723 39.7137 134.497 41.0723C134.271 42.4308 134.43 43.8254 134.955 45.0987V45.0995C134.991 45.1834 135.026 45.2672 135.061 45.3511C135.116 45.484 135.171 45.6171 135.226 45.7508C135.758 47.0218 136.636 48.1195 137.759 48.9204C138.882 49.7222 140.208 50.1946 141.587 50.2858ZM94.8678 75.8324C102.697 75.8324 109.044 69.5054 109.044 61.7006C109.044 53.8959 102.697 47.5689 94.8678 47.5689C87.0387 47.5689 80.6921 53.8959 80.6921 61.7006C80.6921 69.5054 87.0387 75.8324 94.8678 75.8324Z" fill="#B19DFF" fill-opacity="0.7"/>
</g>
<g filter="url(#filter3_d_58_355)">
<path d="M109.852 61.6877C109.852 69.923 103.156 76.599 94.8947 76.599C86.6337 76.599 79.9369 69.923 79.9369 61.6877C79.9369 53.4524 86.6337 46.7763 94.8947 46.7763C103.156 46.7763 109.852 53.4524 109.852 61.6877Z" fill="url(#paint1_linear_58_355)"/>
</g>
</g>
<defs>
<filter id="filter0_d_58_355" x="0" y="0.234043" width="212.922" height="192.638" filterUnits="userSpaceOnUse" color-interpolation-filters="sRGB">
<feFlood flood-opacity="0" result="BackgroundImageFix"/>
<feColorMatrix in="SourceAlpha" type="matrix" values="0 0 0 0 0 0 0 0 0 0 0 0 0 0 0 0 0 0 127 0" result="hardAlpha"/>
<feOffset dy="36"/>
<feGaussianBlur stdDeviation="20.5"/>
<feComposite in2="hardAlpha" operator="out"/>
<feColorMatrix type="matrix" values="0 0 0 0 0.435294 0 0 0 0 0.294118 0 0 0 0 0.894118 0 0 0 0.17 0"/>
<feBlend mode="normal" in2="BackgroundImageFix" result="effect1_dropShadow_58_355"/>
<feBlend mode="normal" in="SourceGraphic" in2="effect1_dropShadow_58_355" result="shape"/>
</filter>
<filter id="filter1_i_58_355" x="88.9432" y="5.23404" width="82.9788" height="82.9787" filterUnits="userSpaceOnUse" color-interpolation-filters="sRGB">
<feFlood flood-opacity="0" result="BackgroundImageFix"/>
<feBlend mode="normal" in="SourceGraphic" in2="BackgroundImageFix" result="shape"/>
<feColorMatrix in="SourceAlpha" type="matrix" values="0 0 0 0 0 0 0 0 0 0 0 0 0 0 0 0 0 0 127 0" result="hardAlpha"/>
<feOffset/>
<feGaussianBlur stdDeviation="5"/>
<feComposite in2="hardAlpha" operator="arithmetic" k2="-1" k3="1"/>
<feColorMatrix type="matrix" values="0 0 0 0 1 0 0 0 0 1 0 0 0 0 1 0 0 0 0.4 0"/>
<feBlend mode="normal" in2="shape" result="effect1_innerShadow_58_355"/>
</filter>
<filter id="filter2_bi_58_355" x="33.3" y="0.3" width="123.608" height="123.272" filterUnits="userSpaceOnUse" color-interpolation-filters="sRGB">
<feFlood flood-opacity="0" result="BackgroundImageFix"/>
<feGaussianBlur in="BackgroundImageFix" stdDeviation="3.85"/>
<feComposite in2="SourceAlpha" operator="in" result="effect1_backgroundBlur_58_355"/>
<feBlend mode="normal" in="SourceGraphic" in2="effect1_backgroundBlur_58_355" result="shape"/>
<feColorMatrix in="SourceAlpha" type="matrix" values="0 0 0 0 0 0 0 0 0 0 0 0 0 0 0 0 0 0 127 0" result="hardAlpha"/>
<feOffset/>
<feGaussianBlur stdDeviation="3.35"/>
<feComposite in2="hardAlpha" operator="arithmetic" k2="-1" k3="1"/>
<feColorMatrix type="matrix" values="0 0 0 0 1 0 0 0 0 1 0 0 0 0 1 0 0 0 0.3 0"/>
<feBlend mode="normal" in2="shape" result="effect2_innerShadow_58_355"/>
</filter>
<filter id="filter3_d_58_355" x="73.9369" y="46.7763" width="41.9155" height="41.8227" filterUnits="userSpaceOnUse" color-interpolation-filters="sRGB">
<feFlood flood-opacity="0" result="BackgroundImageFix"/>
<feColorMatrix in="SourceAlpha" type="matrix" values="0 0 0 0 0 0 0 0 0 0 0 0 0 0 0 0 0 0 127 0" result="hardAlpha"/>
<feOffset dy="6"/>
<feGaussianBlur stdDeviation="3"/>
<feComposite in2="hardAlpha" operator="out"/>
<feColorMatrix type="matrix" values="0 0 0 0 0.635294 0 0 0 0 0.294118 0 0 0 0 0.894118 0 0 0 0.27 0"/>
<feBlend mode="normal" in2="BackgroundImageFix" result="effect1_dropShadow_58_355"/>
<feBlend mode="normal" in="SourceGraphic" in2="effect1_dropShadow_58_355" result="shape"/>
</filter>
<linearGradient id="paint0_linear_58_355" x1="88.9432" y1="5.23404" x2="88.9432" y2="88.2128" gradientUnits="userSpaceOnUse">
<stop stop-color="#8460E9"/>
<stop offset="1" stop-color="#541EAC"/>
</linearGradient>
<linearGradient id="paint1_linear_58_355" x1="81.8066" y1="44.8699" x2="113.587" y2="76.6614" gradientUnits="userSpaceOnUse">
<stop stop-color="white"/>
<stop offset="1" stop-color="#C3B6F8"/>
</linearGradient>
</defs>
</svg>
