<svg width="128" height="130" viewBox="0 0 128 130" fill="none" xmlns="http://www.w3.org/2000/svg">
<g filter="url(#filter0_i_58_315)">
<path d="M85.0464 34.4042C78.7066 34.4042 65.5793 39.9361 56.4123 44.195C50.1768 47.0919 46.0398 53.2761 45.9661 60.3274C45.8465 71.7596 46.8457 89.2639 53.1369 100.207C58.0235 108.707 68.1611 116.829 75.7055 122.09C81.3832 126.049 88.7096 126.049 94.3873 122.09C101.932 116.829 112.069 108.707 116.956 100.207C123.247 89.2638 124.246 71.7595 124.127 60.3274C124.053 53.276 119.916 47.0919 113.681 44.195C104.514 39.9361 91.3862 34.4042 85.0464 34.4042Z" fill="url(#paint0_linear_58_315)"/>
</g>
<g filter="url(#filter1_bi_58_315)">
<path d="M56.9036 2C46.3062 2 21.7199 13.4012 10.4565 18.9112C6.80524 20.6974 4.38556 24.3153 4.17988 28.4768C3.50884 42.0542 3.28517 73.1917 13.6436 91.2095C21.0044 104.013 37.1536 116.184 47.504 123.105C53.2549 126.951 60.5523 126.951 66.3032 123.105C76.6536 116.184 92.8028 104.013 100.164 91.2095C110.522 73.1917 110.298 42.0542 109.627 28.4768C109.422 24.3152 107.002 20.6974 103.351 18.9113C92.0873 13.4012 67.501 2 56.9036 2Z" fill="#362969" fill-opacity="0.47"/>
<path d="M10.6762 19.3604C16.3031 16.6077 25.2527 12.3861 34.1149 8.85382C38.5463 7.08758 42.9488 5.49648 46.899 4.34764C50.8586 3.19607 54.327 2.5 56.9036 2.5C59.4802 2.5 62.9486 3.19607 66.9082 4.34764C70.8584 5.49648 75.2609 7.08758 79.6923 8.85383C88.5545 12.3861 97.5041 16.6077 103.131 19.3604C106.619 21.0667 108.931 24.5222 109.128 28.5015C109.463 35.2768 109.686 46.4288 108.534 58.129C107.381 69.8417 104.856 82.0448 99.7301 90.9603C96.0892 97.2934 90.2579 103.495 84.024 108.988C77.7949 114.477 71.1894 119.236 66.0252 122.69C60.4426 126.423 53.3646 126.423 47.782 122.69C42.6178 119.236 36.0123 114.477 29.7833 108.988C23.5493 103.495 17.7181 97.2934 14.0771 90.9603C8.95158 82.0448 6.42622 69.8417 5.27329 58.129C4.12158 46.4289 4.34441 35.2769 4.67927 28.5015C4.87594 24.5222 7.18815 21.0667 10.6762 19.3604Z" stroke="white" stroke-opacity="0.14"/>
</g>
<path fill-rule="evenodd" clip-rule="evenodd" d="M41.28 63.5361C42.2343 62.5598 43.7815 62.5598 44.7358 63.5361L54.5887 73.6164L71.5622 56.2512C72.5165 55.2749 74.0637 55.2749 75.018 56.2512C75.9723 57.2275 75.9723 58.8104 75.018 59.7867L54.5887 80.6874L41.28 67.0716C40.3257 66.0953 40.3257 64.5124 41.28 63.5361Z" fill="url(#paint1_linear_58_315)"/>
<defs>
<filter id="filter0_i_58_315" x="45.957" y="34.4042" width="78.1787" height="90.6554" filterUnits="userSpaceOnUse" color-interpolation-filters="sRGB">
<feFlood flood-opacity="0" result="BackgroundImageFix"/>
<feBlend mode="normal" in="SourceGraphic" in2="BackgroundImageFix" result="shape"/>
<feColorMatrix in="SourceAlpha" type="matrix" values="0 0 0 0 0 0 0 0 0 0 0 0 0 0 0 0 0 0 127 0" result="hardAlpha"/>
<feOffset/>
<feGaussianBlur stdDeviation="5"/>
<feComposite in2="hardAlpha" operator="arithmetic" k2="-1" k3="1"/>
<feColorMatrix type="matrix" values="0 0 0 0 1 0 0 0 0 1 0 0 0 0 1 0 0 0 0.4 0"/>
<feBlend mode="normal" in2="shape" result="effect1_innerShadow_58_315"/>
</filter>
<filter id="filter1_bi_58_315" x="-3.79021" y="-5.7" width="121.388" height="139.39" filterUnits="userSpaceOnUse" color-interpolation-filters="sRGB">
<feFlood flood-opacity="0" result="BackgroundImageFix"/>
<feGaussianBlur in="BackgroundImageFix" stdDeviation="3.85"/>
<feComposite in2="SourceAlpha" operator="in" result="effect1_backgroundBlur_58_315"/>
<feBlend mode="normal" in="SourceGraphic" in2="effect1_backgroundBlur_58_315" result="shape"/>
<feColorMatrix in="SourceAlpha" type="matrix" values="0 0 0 0 0 0 0 0 0 0 0 0 0 0 0 0 0 0 127 0" result="hardAlpha"/>
<feOffset/>
<feGaussianBlur stdDeviation="6.85"/>
<feComposite in2="hardAlpha" operator="arithmetic" k2="-1" k3="1"/>
<feColorMatrix type="matrix" values="0 0 0 0 0.464687 0 0 0 0 0.242188 0 0 0 0 0.9375 0 0 0 0.3 0"/>
<feBlend mode="normal" in2="shape" result="effect2_innerShadow_58_315"/>
</filter>
<linearGradient id="paint0_linear_58_315" x1="45.957" y1="34.4042" x2="45.957" y2="125.06" gradientUnits="userSpaceOnUse">
<stop stop-color="#8460E9"/>
<stop offset="1" stop-color="#541EAC"/>
</linearGradient>
<linearGradient id="paint1_linear_58_315" x1="39.9757" y1="62.9036" x2="76.8428" y2="69.7545" gradientUnits="userSpaceOnUse">
<stop stop-color="white"/>
<stop offset="1" stop-color="#C3B6F8"/>
</linearGradient>
</defs>
</svg>
