<svg width="111" height="125" viewBox="0 0 111 125" fill="none" xmlns="http://www.w3.org/2000/svg">
<g id="Layer_1">
<path id="Vector" d="M67.7007 106.355C67.7007 113.206 62.1497 118.744 55.3117 118.744C48.4737 118.744 42.9097 113.206 42.9097 106.355C42.9097 101.831 45.3407 97.8791 48.9547 95.7211C50.8137 94.6031 52.9977 93.9661 55.3117 93.9661C57.6257 93.9661 59.8097 94.6031 61.6687 95.7211C65.2827 97.8921 67.7007 101.844 67.7007 106.355Z" stroke="#884BEF" stroke-width="4" stroke-miterlimit="10"/>
<path id="Vector_2" d="M84.4189 58.346C75.9299 53.185 65.9719 50.208 55.3119 50.208C44.6519 50.208 34.6809 53.185 26.1919 58.346" stroke="#11092B" stroke-width="4" stroke-miterlimit="10"/>
<path id="Vector_3" d="M14.8169 39.6521C26.6209 32.4631 40.4919 28.3291 55.3119 28.3291C70.1319 28.3291 84.0029 32.4631 95.8069 39.6521" stroke="#11092B" stroke-width="4" stroke-miterlimit="10"/>
<path id="Vector_4" d="M73.0441 77.0272C67.8701 73.8942 61.7991 72.0872 55.3121 72.0872C48.8251 72.0872 42.7541 73.8942 37.5801 77.0272" stroke="#11092B" stroke-width="4" stroke-miterlimit="10"/>
<path id="Vector_5" d="M107.182 20.9582C92.0629 11.7542 74.3049 6.4502 55.3119 6.4502C36.3189 6.4502 18.5479 11.7542 3.44189 20.9582" stroke="#11092B" stroke-width="4" stroke-miterlimit="10"/>
</g>
</svg>
