<svg width="128" height="130" viewBox="0 0 128 130" fill="none" xmlns="http://www.w3.org/2000/svg">
<g filter="url(#filter0_i_1101_2317)">
<path fill-rule="evenodd" clip-rule="evenodd" d="M70.2436 112.406C100.584 112.406 125.179 87.2431 125.179 56.203C125.179 25.1629 100.584 0 70.2436 0C39.9037 0 15.3083 25.1629 15.3083 56.203C15.3083 87.2431 39.9037 112.406 70.2436 112.406ZM52.9256 30.3008C48.5073 30.3008 44.9256 33.8825 44.9256 38.3007V74.1053C44.9256 78.5235 48.5074 82.1053 52.9256 82.1053H87.5616C91.9799 82.1053 95.5616 78.5236 95.5616 74.1053V38.3008C95.5616 33.8825 91.9799 30.3008 87.5616 30.3008H52.9256Z" fill="url(#paint0_linear_1101_2317)"/>
</g>
<g filter="url(#filter1_bi_1101_2317)">
<rect x="0.977417" y="46.917" width="81.2087" height="83.0827" rx="8" fill="#362969" fill-opacity="0.47"/>
<rect x="1.47742" y="47.417" width="80.2087" height="82.0827" rx="7.5" stroke="white" stroke-opacity="0.14"/>
</g>
<path fill-rule="evenodd" clip-rule="evenodd" d="M29.9123 74.5649L51.4087 74.5649C52.7278 74.5649 53.7972 75.6589 53.7972 77.0085V99.001C53.7972 100.351 52.7278 101.445 51.4087 101.445C50.0896 101.445 49.0202 100.351 49.0202 99.001L49.0202 82.9079L33.0343 99.2627C32.1016 100.217 30.5892 100.217 29.6565 99.2627C28.7237 98.3084 28.7237 96.7612 29.6565 95.8069L45.6424 79.4521L29.9123 79.4521C28.5932 79.4521 27.5238 78.3581 27.5238 77.0085C27.5238 75.6589 28.5932 74.5649 29.9123 74.5649Z" fill="url(#paint1_linear_1101_2317)"/>
<defs>
<filter id="filter0_i_1101_2317" x="15.3083" y="0" width="109.871" height="112.406" filterUnits="userSpaceOnUse" color-interpolation-filters="sRGB">
<feFlood flood-opacity="0" result="BackgroundImageFix"/>
<feBlend mode="normal" in="SourceGraphic" in2="BackgroundImageFix" result="shape"/>
<feColorMatrix in="SourceAlpha" type="matrix" values="0 0 0 0 0 0 0 0 0 0 0 0 0 0 0 0 0 0 127 0" result="hardAlpha"/>
<feOffset/>
<feGaussianBlur stdDeviation="5"/>
<feComposite in2="hardAlpha" operator="arithmetic" k2="-1" k3="1"/>
<feColorMatrix type="matrix" values="0 0 0 0 1 0 0 0 0 1 0 0 0 0 1 0 0 0 0.4 0"/>
<feBlend mode="normal" in2="shape" result="effect1_innerShadow_1101_2317"/>
</filter>
<filter id="filter1_bi_1101_2317" x="-6.72258" y="39.217" width="96.6086" height="98.4828" filterUnits="userSpaceOnUse" color-interpolation-filters="sRGB">
<feFlood flood-opacity="0" result="BackgroundImageFix"/>
<feGaussianBlur in="BackgroundImageFix" stdDeviation="3.85"/>
<feComposite in2="SourceAlpha" operator="in" result="effect1_backgroundBlur_1101_2317"/>
<feBlend mode="normal" in="SourceGraphic" in2="effect1_backgroundBlur_1101_2317" result="shape"/>
<feColorMatrix in="SourceAlpha" type="matrix" values="0 0 0 0 0 0 0 0 0 0 0 0 0 0 0 0 0 0 127 0" result="hardAlpha"/>
<feOffset/>
<feGaussianBlur stdDeviation="6.85"/>
<feComposite in2="hardAlpha" operator="arithmetic" k2="-1" k3="1"/>
<feColorMatrix type="matrix" values="0 0 0 0 0.464687 0 0 0 0 0.242188 0 0 0 0 0.9375 0 0 0 0.3 0"/>
<feBlend mode="normal" in2="shape" result="effect2_innerShadow_1101_2317"/>
</filter>
<linearGradient id="paint0_linear_1101_2317" x1="15.3083" y1="0" x2="15.3083" y2="112.406" gradientUnits="userSpaceOnUse">
<stop stop-color="#8460E9"/>
<stop offset="1" stop-color="#541EAC"/>
</linearGradient>
<linearGradient id="paint1_linear_1101_2317" x1="17.0943" y1="83.4129" x2="68.4159" y2="81.8557" gradientUnits="userSpaceOnUse">
<stop stop-color="white"/>
<stop offset="1" stop-color="#C3B6F8"/>
</linearGradient>
</defs>
</svg>
