<svg width="128" height="133" viewBox="0 0 128 133" fill="none" xmlns="http://www.w3.org/2000/svg">
<g filter="url(#filter0_i_1101_2741)">
<ellipse cx="87.4153" cy="41.7234" rx="40.5535" ry="41.4894" fill="url(#paint0_linear_1101_2741)"/>
</g>
<g filter="url(#filter1_bi_1101_2741)">
<mask id="path-2-inside-1_1101_2741" fill="white">
<path fill-rule="evenodd" clip-rule="evenodd" d="M98.3182 45.2858H101.067C102.313 45.2858 103.509 45.7907 104.39 46.6903C105.272 47.5891 105.767 48.8089 105.767 50.0806V63.7919C105.767 65.0636 105.272 66.2834 104.39 67.1822C103.509 68.0818 102.313 68.5868 101.067 68.5868H98.3182C96.9705 68.6779 95.6745 69.1512 94.576 69.9521C93.4775 70.753 92.6201 71.8515 92.1003 73.1224C92.0134 73.3406 91.9257 73.5571 91.8356 73.7736C91.3216 75.0469 91.1666 76.4414 91.388 77.8C91.6093 79.1585 92.1971 80.4277 93.0865 81.4636L95.031 83.4468C95.913 84.3455 96.4082 85.5654 96.4082 86.837C96.4082 88.1078 95.913 89.3277 95.031 90.2264L85.5243 99.9223C84.6431 100.822 83.447 101.327 82.201 101.327C80.9541 101.327 79.7581 100.822 78.8769 99.9223L76.9324 97.9392C75.9158 97.0321 74.6724 96.4326 73.3403 96.2069C72.0084 95.9811 70.641 96.1399 69.3925 96.6633C69.1802 96.7553 68.9678 96.8447 68.7539 96.9333C67.5071 97.4643 66.4308 98.3388 65.6455 99.4583C64.8594 100.579 64.3962 101.9 64.3068 103.275V106.078C64.3068 107.349 63.8117 108.569 62.9297 109.468C62.0485 110.367 60.8524 110.872 59.6056 110.872H46.1618C44.9149 110.872 43.7189 110.367 42.8376 109.468C41.9556 108.569 41.4605 107.349 41.4605 106.078V103.275C41.3711 101.9 40.9071 100.579 40.1218 99.4583C39.3357 98.3379 38.2594 97.4634 37.0134 96.9333C36.7995 96.8447 36.5863 96.7553 36.3748 96.6633C35.1264 96.1391 33.7591 95.9811 32.427 96.2069C31.0951 96.4326 29.8506 97.0321 28.8349 97.9392L26.8904 99.9223C26.0093 100.822 24.8132 101.327 23.5663 101.327C22.3203 101.327 21.1243 100.822 20.2431 99.9223L10.7364 90.2264C9.85432 89.3277 9.35919 88.1078 9.35919 86.837C9.35919 85.5653 9.85432 84.3455 10.7364 83.4468L12.6808 81.4636C13.5702 80.4268 14.158 79.1586 14.3793 77.8C14.6007 76.4416 14.4449 75.047 13.9318 73.7736V73.7728C13.8416 73.5563 13.7539 73.3397 13.667 73.1215C13.1464 71.8506 12.289 70.7529 11.1905 69.9519C10.0929 69.1501 8.79682 68.6777 7.44917 68.5866H4.70047C3.45441 68.5866 2.25842 68.0816 1.37717 67.182C0.49513 66.2833 0 65.0634 0 63.7918V50.0804C0 48.8087 0.49513 47.5889 1.37717 46.6901C2.25836 45.7905 3.45444 45.2855 4.70047 45.2855H7.44917C8.79685 45.1944 10.0928 44.7212 11.1913 43.9202C12.2898 43.1185 13.1473 42.0208 13.667 40.75C13.7539 40.5318 13.8416 40.3153 13.9318 40.0987C14.4457 38.8254 14.6007 37.431 14.3793 36.0723C14.158 34.7139 13.5702 33.4446 12.6808 32.4087L10.7364 30.4256C9.85432 29.5269 9.35919 28.307 9.35919 27.0353C9.35919 25.7645 9.85432 24.5446 10.7364 23.6459L20.2431 13.95C21.1243 13.0504 22.3203 12.5454 23.5663 12.5454C24.8132 12.5454 26.0092 13.0504 26.8904 13.95L28.8349 15.9332C29.8514 16.8403 31.0949 17.4398 32.427 17.6655C33.759 17.8912 35.1263 17.7324 36.3748 17.209C36.5872 17.117 36.7995 17.0276 37.0134 16.9389C38.2601 16.408 39.3365 15.5335 40.1218 14.414C40.908 13.2938 41.3711 11.9719 41.4605 10.5974V7.79402C41.4605 6.52316 41.9556 5.30337 42.8376 4.40461C43.7188 3.50498 44.9149 3 46.1618 3H59.6056C60.8524 3 62.0485 3.50498 62.9297 4.40461C63.8117 5.30331 64.3068 6.52316 64.3068 7.79402V10.5974C64.3962 11.9719 64.8602 13.2937 65.6455 14.414C66.4316 15.5344 67.5079 16.4089 68.7539 16.9389C68.9678 17.0276 69.181 17.117 69.3925 17.209C70.6409 17.7324 72.0082 17.8912 73.3403 17.6655C74.6723 17.4398 75.9167 16.8403 76.9324 15.9332L78.8769 13.95C79.758 13.0504 80.9541 12.5454 82.201 12.5454C83.447 12.5454 84.643 13.0504 85.5251 13.95L95.031 23.6459C95.913 24.5446 96.4082 25.7645 96.4082 27.0353C96.4082 28.307 95.913 29.5268 95.031 30.4256L93.0865 32.4087C92.1971 33.4455 91.6093 34.7137 91.388 36.0723C91.1667 37.4308 91.3224 38.8254 91.8356 40.0987V40.0995C91.8705 40.1834 91.9051 40.2672 91.9394 40.3511C91.9935 40.484 92.0471 40.6171 92.1003 40.7508C92.6209 42.0218 93.4784 43.1195 94.576 43.9204C95.6744 44.7222 96.9705 45.1946 98.3182 45.2858ZM52.6527 70.8324C60.3052 70.8324 66.5087 64.5054 66.5087 56.7006C66.5087 48.8959 60.3052 42.5689 52.6527 42.5689C45.0003 42.5689 38.7967 48.8959 38.7967 56.7006C38.7967 64.5054 45.0003 70.8324 52.6527 70.8324Z"/>
</mask>
<path fill-rule="evenodd" clip-rule="evenodd" d="M98.3182 45.2858H101.067C102.313 45.2858 103.509 45.7907 104.39 46.6903C105.272 47.5891 105.767 48.8089 105.767 50.0806V63.7919C105.767 65.0636 105.272 66.2834 104.39 67.1822C103.509 68.0818 102.313 68.5868 101.067 68.5868H98.3182C96.9705 68.6779 95.6745 69.1512 94.576 69.9521C93.4775 70.753 92.6201 71.8515 92.1003 73.1224C92.0134 73.3406 91.9257 73.5571 91.8356 73.7736C91.3216 75.0469 91.1666 76.4414 91.388 77.8C91.6093 79.1585 92.1971 80.4277 93.0865 81.4636L95.031 83.4468C95.913 84.3455 96.4082 85.5654 96.4082 86.837C96.4082 88.1078 95.913 89.3277 95.031 90.2264L85.5243 99.9223C84.6431 100.822 83.447 101.327 82.201 101.327C80.9541 101.327 79.7581 100.822 78.8769 99.9223L76.9324 97.9392C75.9158 97.0321 74.6724 96.4326 73.3403 96.2069C72.0084 95.9811 70.641 96.1399 69.3925 96.6633C69.1802 96.7553 68.9678 96.8447 68.7539 96.9333C67.5071 97.4643 66.4308 98.3388 65.6455 99.4583C64.8594 100.579 64.3962 101.9 64.3068 103.275V106.078C64.3068 107.349 63.8117 108.569 62.9297 109.468C62.0485 110.367 60.8524 110.872 59.6056 110.872H46.1618C44.9149 110.872 43.7189 110.367 42.8376 109.468C41.9556 108.569 41.4605 107.349 41.4605 106.078V103.275C41.3711 101.9 40.9071 100.579 40.1218 99.4583C39.3357 98.3379 38.2594 97.4634 37.0134 96.9333C36.7995 96.8447 36.5863 96.7553 36.3748 96.6633C35.1264 96.1391 33.7591 95.9811 32.427 96.2069C31.0951 96.4326 29.8506 97.0321 28.8349 97.9392L26.8904 99.9223C26.0093 100.822 24.8132 101.327 23.5663 101.327C22.3203 101.327 21.1243 100.822 20.2431 99.9223L10.7364 90.2264C9.85432 89.3277 9.35919 88.1078 9.35919 86.837C9.35919 85.5653 9.85432 84.3455 10.7364 83.4468L12.6808 81.4636C13.5702 80.4268 14.158 79.1586 14.3793 77.8C14.6007 76.4416 14.4449 75.047 13.9318 73.7736V73.7728C13.8416 73.5563 13.7539 73.3397 13.667 73.1215C13.1464 71.8506 12.289 70.7529 11.1905 69.9519C10.0929 69.1501 8.79682 68.6777 7.44917 68.5866H4.70047C3.45441 68.5866 2.25842 68.0816 1.37717 67.182C0.49513 66.2833 0 65.0634 0 63.7918V50.0804C0 48.8087 0.49513 47.5889 1.37717 46.6901C2.25836 45.7905 3.45444 45.2855 4.70047 45.2855H7.44917C8.79685 45.1944 10.0928 44.7212 11.1913 43.9202C12.2898 43.1185 13.1473 42.0208 13.667 40.75C13.7539 40.5318 13.8416 40.3153 13.9318 40.0987C14.4457 38.8254 14.6007 37.431 14.3793 36.0723C14.158 34.7139 13.5702 33.4446 12.6808 32.4087L10.7364 30.4256C9.85432 29.5269 9.35919 28.307 9.35919 27.0353C9.35919 25.7645 9.85432 24.5446 10.7364 23.6459L20.2431 13.95C21.1243 13.0504 22.3203 12.5454 23.5663 12.5454C24.8132 12.5454 26.0092 13.0504 26.8904 13.95L28.8349 15.9332C29.8514 16.8403 31.0949 17.4398 32.427 17.6655C33.759 17.8912 35.1263 17.7324 36.3748 17.209C36.5872 17.117 36.7995 17.0276 37.0134 16.9389C38.2601 16.408 39.3365 15.5335 40.1218 14.414C40.908 13.2938 41.3711 11.9719 41.4605 10.5974V7.79402C41.4605 6.52316 41.9556 5.30337 42.8376 4.40461C43.7188 3.50498 44.9149 3 46.1618 3H59.6056C60.8524 3 62.0485 3.50498 62.9297 4.40461C63.8117 5.30331 64.3068 6.52316 64.3068 7.79402V10.5974C64.3962 11.9719 64.8602 13.2937 65.6455 14.414C66.4316 15.5344 67.5079 16.4089 68.7539 16.9389C68.9678 17.0276 69.181 17.117 69.3925 17.209C70.6409 17.7324 72.0082 17.8912 73.3403 17.6655C74.6723 17.4398 75.9167 16.8403 76.9324 15.9332L78.8769 13.95C79.758 13.0504 80.9541 12.5454 82.201 12.5454C83.447 12.5454 84.643 13.0504 85.5251 13.95L95.031 23.6459C95.913 24.5446 96.4082 25.7645 96.4082 27.0353C96.4082 28.307 95.913 29.5268 95.031 30.4256L93.0865 32.4087C92.1971 33.4455 91.6093 34.7137 91.388 36.0723C91.1667 37.4308 91.3224 38.8254 91.8356 40.0987V40.0995C91.8705 40.1834 91.9051 40.2672 91.9394 40.3511C91.9935 40.484 92.0471 40.6171 92.1003 40.7508C92.6209 42.0218 93.4784 43.1195 94.576 43.9204C95.6744 44.7222 96.9705 45.1946 98.3182 45.2858ZM52.6527 70.8324C60.3052 70.8324 66.5087 64.5054 66.5087 56.7006C66.5087 48.8959 60.3052 42.5689 52.6527 42.5689C45.0003 42.5689 38.7967 48.8959 38.7967 56.7006C38.7967 64.5054 45.0003 70.8324 52.6527 70.8324Z" fill="#362969" fill-opacity="0.47"/>
<path fill-rule="evenodd" clip-rule="evenodd" d="M98.3182 45.2858H101.067C102.313 45.2858 103.509 45.7907 104.39 46.6903C105.272 47.5891 105.767 48.8089 105.767 50.0806V63.7919C105.767 65.0636 105.272 66.2834 104.39 67.1822C103.509 68.0818 102.313 68.5868 101.067 68.5868H98.3182C96.9705 68.6779 95.6745 69.1512 94.576 69.9521C93.4775 70.753 92.6201 71.8515 92.1003 73.1224C92.0134 73.3406 91.9257 73.5571 91.8356 73.7736C91.3216 75.0469 91.1666 76.4414 91.388 77.8C91.6093 79.1585 92.1971 80.4277 93.0865 81.4636L95.031 83.4468C95.913 84.3455 96.4082 85.5654 96.4082 86.837C96.4082 88.1078 95.913 89.3277 95.031 90.2264L85.5243 99.9223C84.6431 100.822 83.447 101.327 82.201 101.327C80.9541 101.327 79.7581 100.822 78.8769 99.9223L76.9324 97.9392C75.9158 97.0321 74.6724 96.4326 73.3403 96.2069C72.0084 95.9811 70.641 96.1399 69.3925 96.6633C69.1802 96.7553 68.9678 96.8447 68.7539 96.9333C67.5071 97.4643 66.4308 98.3388 65.6455 99.4583C64.8594 100.579 64.3962 101.9 64.3068 103.275V106.078C64.3068 107.349 63.8117 108.569 62.9297 109.468C62.0485 110.367 60.8524 110.872 59.6056 110.872H46.1618C44.9149 110.872 43.7189 110.367 42.8376 109.468C41.9556 108.569 41.4605 107.349 41.4605 106.078V103.275C41.3711 101.9 40.9071 100.579 40.1218 99.4583C39.3357 98.3379 38.2594 97.4634 37.0134 96.9333C36.7995 96.8447 36.5863 96.7553 36.3748 96.6633C35.1264 96.1391 33.7591 95.9811 32.427 96.2069C31.0951 96.4326 29.8506 97.0321 28.8349 97.9392L26.8904 99.9223C26.0093 100.822 24.8132 101.327 23.5663 101.327C22.3203 101.327 21.1243 100.822 20.2431 99.9223L10.7364 90.2264C9.85432 89.3277 9.35919 88.1078 9.35919 86.837C9.35919 85.5653 9.85432 84.3455 10.7364 83.4468L12.6808 81.4636C13.5702 80.4268 14.158 79.1586 14.3793 77.8C14.6007 76.4416 14.4449 75.047 13.9318 73.7736V73.7728C13.8416 73.5563 13.7539 73.3397 13.667 73.1215C13.1464 71.8506 12.289 70.7529 11.1905 69.9519C10.0929 69.1501 8.79682 68.6777 7.44917 68.5866H4.70047C3.45441 68.5866 2.25842 68.0816 1.37717 67.182C0.49513 66.2833 0 65.0634 0 63.7918V50.0804C0 48.8087 0.49513 47.5889 1.37717 46.6901C2.25836 45.7905 3.45444 45.2855 4.70047 45.2855H7.44917C8.79685 45.1944 10.0928 44.7212 11.1913 43.9202C12.2898 43.1185 13.1473 42.0208 13.667 40.75C13.7539 40.5318 13.8416 40.3153 13.9318 40.0987C14.4457 38.8254 14.6007 37.431 14.3793 36.0723C14.158 34.7139 13.5702 33.4446 12.6808 32.4087L10.7364 30.4256C9.85432 29.5269 9.35919 28.307 9.35919 27.0353C9.35919 25.7645 9.85432 24.5446 10.7364 23.6459L20.2431 13.95C21.1243 13.0504 22.3203 12.5454 23.5663 12.5454C24.8132 12.5454 26.0092 13.0504 26.8904 13.95L28.8349 15.9332C29.8514 16.8403 31.0949 17.4398 32.427 17.6655C33.759 17.8912 35.1263 17.7324 36.3748 17.209C36.5872 17.117 36.7995 17.0276 37.0134 16.9389C38.2601 16.408 39.3365 15.5335 40.1218 14.414C40.908 13.2938 41.3711 11.9719 41.4605 10.5974V7.79402C41.4605 6.52316 41.9556 5.30337 42.8376 4.40461C43.7188 3.50498 44.9149 3 46.1618 3H59.6056C60.8524 3 62.0485 3.50498 62.9297 4.40461C63.8117 5.30331 64.3068 6.52316 64.3068 7.79402V10.5974C64.3962 11.9719 64.8602 13.2937 65.6455 14.414C66.4316 15.5344 67.5079 16.4089 68.7539 16.9389C68.9678 17.0276 69.181 17.117 69.3925 17.209C70.6409 17.7324 72.0082 17.8912 73.3403 17.6655C74.6723 17.4398 75.9167 16.8403 76.9324 15.9332L78.8769 13.95C79.758 13.0504 80.9541 12.5454 82.201 12.5454C83.447 12.5454 84.643 13.0504 85.5251 13.95L95.031 23.6459C95.913 24.5446 96.4082 25.7645 96.4082 27.0353C96.4082 28.307 95.913 29.5268 95.031 30.4256L93.0865 32.4087C92.1971 33.4455 91.6093 34.7137 91.388 36.0723C91.1667 37.4308 91.3224 38.8254 91.8356 40.0987V40.0995C91.8705 40.1834 91.9051 40.2672 91.9394 40.3511C91.9935 40.484 92.0471 40.6171 92.1003 40.7508C92.6209 42.0218 93.4784 43.1195 94.576 43.9204C95.6744 44.7222 96.9705 45.1946 98.3182 45.2858ZM52.6527 70.8324C60.3052 70.8324 66.5087 64.5054 66.5087 56.7006C66.5087 48.8959 60.3052 42.5689 52.6527 42.5689C45.0003 42.5689 38.7967 48.8959 38.7967 56.7006C38.7967 64.5054 45.0003 70.8324 52.6527 70.8324Z" stroke="white" stroke-opacity="0.14" stroke-width="2" mask="url(#path-2-inside-1_1101_2741)"/>
</g>
<g filter="url(#filter2_d_1101_2741)">
<path d="M67.2994 56.6877C67.2994 64.9231 60.7536 71.5991 52.679 71.5991C44.6044 71.5991 38.0586 64.9231 38.0586 56.6877C38.0586 48.4524 44.6044 41.7764 52.679 41.7764C60.7536 41.7764 67.2994 48.4524 67.2994 56.6877Z" fill="url(#paint1_linear_1101_2741)"/>
</g>
<defs>
<filter id="filter0_i_1101_2741" x="46.8618" y="0.234009" width="81.1071" height="82.9788" filterUnits="userSpaceOnUse" color-interpolation-filters="sRGB">
<feFlood flood-opacity="0" result="BackgroundImageFix"/>
<feBlend mode="normal" in="SourceGraphic" in2="BackgroundImageFix" result="shape"/>
<feColorMatrix in="SourceAlpha" type="matrix" values="0 0 0 0 0 0 0 0 0 0 0 0 0 0 0 0 0 0 127 0" result="hardAlpha"/>
<feOffset/>
<feGaussianBlur stdDeviation="5"/>
<feComposite in2="hardAlpha" operator="arithmetic" k2="-1" k3="1"/>
<feColorMatrix type="matrix" values="0 0 0 0 1 0 0 0 0 1 0 0 0 0 1 0 0 0 0.4 0"/>
<feBlend mode="normal" in2="shape" result="effect1_innerShadow_1101_2741"/>
</filter>
<filter id="filter1_bi_1101_2741" x="-7.7" y="-4.7" width="121.167" height="123.272" filterUnits="userSpaceOnUse" color-interpolation-filters="sRGB">
<feFlood flood-opacity="0" result="BackgroundImageFix"/>
<feGaussianBlur in="BackgroundImageFix" stdDeviation="3.85"/>
<feComposite in2="SourceAlpha" operator="in" result="effect1_backgroundBlur_1101_2741"/>
<feBlend mode="normal" in="SourceGraphic" in2="effect1_backgroundBlur_1101_2741" result="shape"/>
<feColorMatrix in="SourceAlpha" type="matrix" values="0 0 0 0 0 0 0 0 0 0 0 0 0 0 0 0 0 0 127 0" result="hardAlpha"/>
<feOffset/>
<feGaussianBlur stdDeviation="6.85"/>
<feComposite in2="hardAlpha" operator="arithmetic" k2="-1" k3="1"/>
<feColorMatrix type="matrix" values="0 0 0 0 0.464687 0 0 0 0 0.242188 0 0 0 0 0.9375 0 0 0 0.3 0"/>
<feBlend mode="normal" in2="shape" result="effect2_innerShadow_1101_2741"/>
</filter>
<filter id="filter2_d_1101_2741" x="32.0586" y="41.7764" width="41.2407" height="41.8228" filterUnits="userSpaceOnUse" color-interpolation-filters="sRGB">
<feFlood flood-opacity="0" result="BackgroundImageFix"/>
<feColorMatrix in="SourceAlpha" type="matrix" values="0 0 0 0 0 0 0 0 0 0 0 0 0 0 0 0 0 0 127 0" result="hardAlpha"/>
<feOffset dy="6"/>
<feGaussianBlur stdDeviation="3"/>
<feComposite in2="hardAlpha" operator="out"/>
<feColorMatrix type="matrix" values="0 0 0 0 0.635294 0 0 0 0 0.294118 0 0 0 0 0.894118 0 0 0 0.27 0"/>
<feBlend mode="normal" in2="BackgroundImageFix" result="effect1_dropShadow_1101_2741"/>
<feBlend mode="normal" in="SourceGraphic" in2="effect1_dropShadow_1101_2741" result="shape"/>
</filter>
<linearGradient id="paint0_linear_1101_2741" x1="46.8618" y1="0.234009" x2="46.8618" y2="83.2127" gradientUnits="userSpaceOnUse">
<stop stop-color="#8460E9"/>
<stop offset="1" stop-color="#541EAC"/>
</linearGradient>
<linearGradient id="paint1_linear_1101_2741" x1="39.8861" y1="39.8699" x2="71.6587" y2="70.9365" gradientUnits="userSpaceOnUse">
<stop stop-color="white"/>
<stop offset="1" stop-color="#C3B6F8"/>
</linearGradient>
</defs>
</svg>
